{
  "source": "C:\\Users\\Peter\\Desktop\\stuff\\MIUN\\quantitative_research\\video_compression\\videos\\UVG\\HoneyBee_1920x1080_120fps_420_8bit_YUV.y4m",
  "output": "C:\\Users\\Peter\\Desktop\\stuff\\MIUN\\quantitative_research\\video_compression\\compressed_videos\\UVG\\hevc\\8\\HoneyBee_1920x1080_120fps_420_8bit_YUV_hevc.mp4",
  "codec": "hevc",
  "ok": "[yuv4mpegpipe @ 0000022a6a7c6740] Stream #0: not enough frames to estimate rate; consider increasing probesize\nInput #0, yuv4mpegpipe, from 'C:\\Users\\Peter\\Desktop\\stuff\\MIUN\\quantitative_research\\video_compression\\videos\\UVG\\HoneyBee_1920x1080_120fps_420_8bit_YUV.y4m':\n  Duration: 00:00:05.00, start: 0.000000, bitrate: 2985989 kb/s\n  Stream #0:0: Video: rawvideo (I420 / 0x30323449), yuv420p(progressive), 1920x1080, 120 fps, 120 tbr, 120 tbn\n[out#0/mp4 @ 0000022a6a7c9a80] Codec AVOption b:a (set bitrate (in bits/s)) has not been used for any stream. The most likely reason is either wrong type (e.g. a video option with no video streams) or that it is a private option of some decoder which was not actually used for any stream.\nStream mapping:\n  Stream #0:0 -> #0:0 (rawvideo (native) -> hevc (libx265))\nPress [q] to stop, [?] for help\n[libx265 @ 0000022a6a7ccac0] Unknown option: \"aq-mode.\nx265 [info]: HEVC encoder version 4.1+190-8f11c33ac\nx265 [info]: build info [Windows][GCC 15.1.0][64 bit] 10bit\nx265 [info]: using cpu capabilities: MMX2 SSE2Fast LZCNT SSSE3 SSE4.2 AVX FMA3 BMI2 AVX2\nx265 [info]: Main 10 profile, Level-5 (Main tier)\nx265 [info]: Thread pool created using 12 threads\nx265 [info]: Slices                              : 1\nx265 [info]: frame threads / pool features       : 3 / wpp(17 rows)\nx265 [info]: Coding QT: max CU size, min CU size : 64 / 8\nx265 [info]: Residual QT: max TU size, max depth : 32 / 1 inter / 1 intra\nx265 [info]: ME / range / subpel / merge         : star / 57 / 3 / 3\nx265 [info]: Keyframe min / max / scenecut / bias  : 25 / 250 / 40 / 5.00 \nx265 [info]: Lookahead / bframes / badapt        : 25 / 4 / 2\nx265 [info]: b-pyramid / weightp / weightb       : 1 / 1 / 0\nx265 [info]: References / ref-limit  cu / depth  : 4 / on / on\nx265 [info]: AQ: mode / str / qg-size / cu-tree  : 2 / 1.0 / 32 / 1\nx265 [info]: Rate Control / qCompress            : ABR-8000 kbps / 0.60\nx265 [info]: VBV/HRD buffer / max-rate / init    : 8000 / 8000 / 0.750\nx265 [info]: tools: rect limit-modes rd=4 psy-rd=2.00 rdoq=2 psy-rdoq=1.00\nx265 [info]: tools: rskip mode=1 signhide tmvp strong-intra-smoothing lslices=4\nx265 [info]: tools: deblock sao dhdr10-info\nOutput #0, mp4, to 'C:\\Users\\Peter\\Desktop\\stuff\\MIUN\\quantitative_research\\video_compression\\compressed_videos\\UVG\\hevc\\8\\HoneyBee_1920x1080_120fps_420_8bit_YUV_hevc.mp4':\n  Metadata:\n    encoder         : Lavf62.3.100\n  Stream #0:0: Video: hevc (hev1 / 0x31766568), yuv420p10le(tv, progressive), 1920x1080, q=2-31, 8000 kb/s, 120 fps, 15360 tbn\n    Metadata:\n      encoder         : Lavc62.11.100 libx265\n    Side data:\n      cpb: bitrate max/min/avg: 8000000/0/8000000 buffer size: 8000000 vbv_delay: N/A\nframe=    0 fps=0.0 q=0.0 size=       0KiB time=N/A bitrate=N/A speed=N/A elapsed=0:00:00.52    \nframe=    0 fps=0.0 q=0.0 size=       0KiB time=N/A bitrate=N/A speed=N/A elapsed=0:00:01.12    \nframe=    0 fps=0.0 q=0.0 size=       0KiB time=N/A bitrate=N/A speed=N/A elapsed=0:00:01.64    \nframe=    0 fps=0.0 q=0.0 size=       0KiB time=N/A bitrate=N/A speed=N/A elapsed=0:00:02.15    \nframe=    0 fps=0.0 q=0.0 size=       0KiB time=N/A bitrate=N/A speed=N/A elapsed=0:00:02.68    \nframe=    0 fps=0.0 q=0.0 size=       0KiB time=N/A bitrate=N/A speed=N/A elapsed=0:00:03.23    \nframe=    0 fps=0.0 q=0.0 size=       0KiB time=N/A bitrate=N/A speed=N/A elapsed=0:00:03.75    \nframe=    0 fps=0.0 q=0.0 size=       0KiB time=N/A bitrate=N/A speed=N/A elapsed=0:00:04.29    \nframe=    0 fps=0.0 q=0.0 size=       0KiB time=N/A bitrate=N/A speed=N/A elapsed=0:00:04.82    \nframe=    0 fps=0.0 q=0.0 size=       0KiB time=N/A bitrate=N/A speed=N/A elapsed=0:00:05.35    \nframe=    0 fps=0.0 q=0.0 size=       0KiB time=N/A bitrate=N/A speed=N/A elapsed=0:00:05.92    \nframe=    1 fps=0.2 q=33.6 size=       0KiB time=-00:00:00.00 bitrate=N/A speed=N/A elapsed=0:00:06.47    \nframe=    3 fps=0.4 q=44.0 size=       0KiB time=00:00:00.00 bitrate=  42.2kbits/s speed=0.00119x elapsed=0:00:07.00    \nframe=    4 fps=0.5 q=44.0 size=       0KiB time=00:00:00.01 bitrate=  21.1kbits/s speed=0.00222x elapsed=0:00:07.50    \nframe=    5 fps=0.6 q=40.8 size=       0KiB time=00:00:00.02 bitrate=  14.1kbits/s speed=0.00311x elapsed=0:00:08.03    \nframe=    5 fps=0.6 q=40.8 size=       0KiB time=00:00:00.02 bitrate=  14.1kbits/s speed=0.00292x elapsed=0:00:08.56    \nframe=    6 fps=0.7 q=39.8 size=       0KiB time=00:00:00.03 bitrate=  10.6kbits/s speed=0.00366x elapsed=0:00:09.10    \nframe=    8 fps=0.8 q=34.0 size=       0KiB time=00:00:00.05 bitrate=   7.0kbits/s speed=0.00517x elapsed=0:00:09.67    \nframe=    9 fps=0.9 q=32.6 size=       0KiB time=00:00:00.05 bitrate=   6.0kbits/s speed=0.00571x elapsed=0:00:10.22    \nframe=    9 fps=0.8 q=32.6 size=       0KiB time=00:00:00.05 bitrate=   6.0kbits/s speed=0.00543x elapsed=0:00:10.74    \nframe=    9 fps=0.8 q=32.6 size=       0KiB time=00:00:00.05 bitrate=   6.0kbits/s speed=0.00518x elapsed=0:00:11.27    \nframe=    9 fps=0.8 q=32.6 size=       0KiB time=00:00:00.05 bitrate=   6.0kbits/s speed=0.00494x elapsed=0:00:11.80    \nframe=    9 fps=0.7 q=32.6 size=       0KiB time=00:00:00.05 bitrate=   6.0kbits/s speed=0.00472x elapsed=0:00:12.35    \nframe=   10 fps=0.8 q=33.7 size=       0KiB time=00:00:00.06 bitrate=   5.3kbits/s speed=0.00518x elapsed=0:00:12.86    \nframe=   11 fps=0.8 q=32.7 size=       0KiB time=00:00:00.07 bitrate=   4.7kbits/s speed=0.0056x elapsed=0:00:13.38    \nframe=   13 fps=0.9 q=32.8 size=       0KiB time=00:00:00.09 bitrate=   3.8kbits/s speed=0.00659x elapsed=0:00:13.90    \nframe=   14 fps=1.0 q=32.8 size=       0KiB time=00:00:00.10 bitrate=   3.5kbits/s speed=0.00693x elapsed=0:00:14.43    \nframe=   14 fps=0.9 q=32.8 size=       0KiB time=00:00:00.10 bitrate=   3.5kbits/s speed=0.00668x elapsed=0:00:14.96    \nframe=   15 fps=1.0 q=34.8 size=       0KiB time=00:00:00.10 bitrate=   3.2kbits/s speed=0.00698x elapsed=0:00:15.51    \nframe=   15 fps=0.9 q=34.8 size=       0KiB time=00:00:00.10 bitrate=   3.2kbits/s speed=0.00675x elapsed=0:00:16.05    \nframe=   16 fps=1.0 q=33.8 size=       0KiB time=00:00:00.11 bitrate=   3.0kbits/s speed=0.00703x elapsed=0:00:16.58    \nframe=   19 fps=1.1 q=33.7 size=       0KiB time=00:00:00.14 bitrate=   2.5kbits/s speed=0.00827x elapsed=0:00:17.12    \nframe=   19 fps=1.1 q=33.7 size=       0KiB time=00:00:00.14 bitrate=   2.5kbits/s speed=0.00803x elapsed=0:00:17.64    \nframe=   19 fps=1.0 q=33.7 size=       0KiB time=00:00:00.14 bitrate=   2.5kbits/s speed=0.00781x elapsed=0:00:18.15    \nframe=   20 fps=1.1 q=31.7 size=       0KiB time=00:00:00.15 bitrate=   2.3kbits/s speed=0.00802x elapsed=0:00:18.70    \nframe=   20 fps=1.0 q=31.7 size=       0KiB time=00:00:00.15 bitrate=   2.3kbits/s speed=0.0078x elapsed=0:00:19.22    \nframe=   20 fps=1.0 q=31.7 size=       0KiB time=00:00:00.15 bitrate=   2.3kbits/s speed=0.0076x elapsed=0:00:19.74    \nframe=   22 fps=1.1 q=24.9 size=       0KiB time=00:00:00.16 bitrate=   2.1kbits/s speed=0.00823x elapsed=0:00:20.25    \nframe=   24 fps=1.2 q=31.5 size=       0KiB time=00:00:00.18 bitrate=   1.9kbits/s speed=0.00882x elapsed=0:00:20.78    \nframe=   24 fps=1.1 q=31.5 size=       0KiB time=00:00:00.18 bitrate=   1.9kbits/s speed=0.0086x elapsed=0:00:21.32    \nframe=   25 fps=1.1 q=30.5 size=       0KiB time=00:00:00.19 bitrate=   1.8kbits/s speed=0.00877x elapsed=0:00:21.86    \nframe=   26 fps=1.2 q=30.2 size=       0KiB time=00:00:00.20 bitrate=   1.8kbits/s speed=0.00893x elapsed=0:00:22.40    \nframe=   27 fps=1.2 q=24.2 size=       0KiB time=00:00:00.20 bitrate=   1.7kbits/s speed=0.00908x elapsed=0:00:22.93    \nframe=   29 fps=1.2 q=30.6 size=       0KiB time=00:00:00.22 bitrate=   1.6kbits/s speed=0.0096x elapsed=0:00:23.44    \nframe=   29 fps=1.2 q=30.6 size=       0KiB time=00:00:00.22 bitrate=   1.6kbits/s speed=0.00937x elapsed=0:00:24.00    \nframe=   29 fps=1.2 q=30.6 size=       0KiB time=00:00:00.22 bitrate=   1.6kbits/s speed=0.00917x elapsed=0:00:24.54    \nframe=   29 fps=1.2 q=30.6 size=       0KiB time=00:00:00.22 bitrate=   1.6kbits/s speed=0.00897x elapsed=0:00:25.08    \nframe=   30 fps=1.2 q=29.2 size=       0KiB time=00:00:00.23 bitrate=   1.5kbits/s speed=0.0091x elapsed=0:00:25.62    \nframe=   31 fps=1.2 q=29.2 size=       0KiB time=00:00:00.24 bitrate=   1.5kbits/s speed=0.00924x elapsed=0:00:26.14    \nframe=   31 fps=1.2 q=29.2 size=       0KiB time=00:00:00.24 bitrate=   1.5kbits/s speed=0.00906x elapsed=0:00:26.68    \nframe=   32 fps=1.2 q=23.6 size=       0KiB time=00:00:00.25 bitrate=   1.4kbits/s speed=0.00919x elapsed=0:00:27.21    \nframe=   33 fps=1.2 q=28.9 size=       0KiB time=00:00:00.25 bitrate=   1.4kbits/s speed=0.00932x elapsed=0:00:27.72    \nframe=   34 fps=1.2 q=29.6 size=       0KiB time=00:00:00.26 bitrate=   1.3kbits/s speed=0.00944x elapsed=0:00:28.25    \nframe=   35 fps=1.2 q=28.3 size=       0KiB time=00:00:00.27 bitrate=   1.3kbits/s speed=0.00955x elapsed=0:00:28.78    \nframe=   36 fps=1.2 q=28.1 size=       0KiB time=00:00:00.28 bitrate=   1.2kbits/s speed=0.00966x elapsed=0:00:29.33    \nframe=   36 fps=1.2 q=28.1 size=       0KiB time=00:00:00.28 bitrate=   1.2kbits/s speed=0.00948x elapsed=0:00:29.88    \nframe=   38 fps=1.2 q=28.9 size=       0KiB time=00:00:00.30 bitrate=   1.2kbits/s speed=0.00986x elapsed=0:00:30.44    \nframe=   39 fps=1.3 q=28.2 size=       0KiB time=00:00:00.30 bitrate=   1.1kbits/s speed=0.00996x elapsed=0:00:30.96    \nframe=   40 fps=1.3 q=27.8 size=       0KiB time=00:00:00.31 bitrate=   1.1kbits/s speed=0.0101x elapsed=0:00:31.48    \nframe=   40 fps=1.3 q=27.8 size=       0KiB time=00:00:00.31 bitrate=   1.1kbits/s speed=0.0099x elapsed=0:00:31.99    \nframe=   41 fps=1.3 q=28.1 size=       0KiB time=00:00:00.32 bitrate=   1.1kbits/s speed=0.00999x elapsed=0:00:32.52    \nframe=   42 fps=1.3 q=22.9 size=       0KiB time=00:00:00.33 bitrate=   1.1kbits/s speed=0.0101x elapsed=0:00:33.06    \nframe=   43 fps=1.3 q=28.4 size=       0KiB time=00:00:00.34 bitrate=   1.0kbits/s speed=0.0102x elapsed=0:00:33.61    \nframe=   44 fps=1.3 q=28.1 size=       0KiB time=00:00:00.35 bitrate=   1.0kbits/s speed=0.0102x elapsed=0:00:34.14    \nframe=   44 fps=1.3 q=28.1 size=       0KiB time=00:00:00.35 bitrate=   1.0kbits/s speed=0.0101x elapsed=0:00:34.67    \nframe=   46 fps=1.3 q=28.4 size=       0KiB time=00:00:00.36 bitrate=   1.0kbits/s speed=0.0104x elapsed=0:00:35.20    \nframe=   47 fps=1.3 q=22.7 size=       0KiB time=00:00:00.37 bitrate=   0.9kbits/s speed=0.0105x elapsed=0:00:35.74    \nframe=   48 fps=1.3 q=28.6 size=     256KiB time=00:00:00.38 bitrate=5471.8kbits/s speed=0.0106x elapsed=0:00:36.26    \nframe=   49 fps=1.3 q=28.7 size=     256KiB time=00:00:00.39 bitrate=5355.3kbits/s speed=0.0106x elapsed=0:00:36.81    \nframe=   49 fps=1.3 q=28.7 size=     256KiB time=00:00:00.39 bitrate=5355.3kbits/s speed=0.0105x elapsed=0:00:37.38    \nframe=   50 fps=1.3 q=28.5 size=     256KiB time=00:00:00.40 bitrate=5243.8kbits/s speed=0.0105x elapsed=0:00:37.92    \nframe=   50 fps=1.3 q=28.5 size=     256KiB time=00:00:00.40 bitrate=5243.8kbits/s speed=0.0104x elapsed=0:00:38.46    \nframe=   51 fps=1.3 q=28.3 size=     256KiB time=00:00:00.40 bitrate=5136.7kbits/s speed=0.0105x elapsed=0:00:39.00    \nframe=   52 fps=1.3 q=22.6 size=     256KiB time=00:00:00.41 bitrate=5034.0kbits/s speed=0.0105x elapsed=0:00:39.50    \nframe=   53 fps=1.3 q=28.6 size=     256KiB time=00:00:00.42 bitrate=4935.3kbits/s speed=0.0106x elapsed=0:00:40.03    \nframe=   54 fps=1.3 q=28.2 size=     256KiB time=00:00:00.42 bitrate=4935.3kbits/s speed=0.0105x elapsed=0:00:40.55    \nframe=   54 fps=1.3 q=28.2 size=     256KiB time=00:00:00.43 bitrate=4840.4kbits/s speed=0.0105x elapsed=0:00:41.07    \nframe=   55 fps=1.3 q=28.3 size=     256KiB time=00:00:00.44 bitrate=4749.1kbits/s speed=0.0106x elapsed=0:00:41.60    \nframe=   56 fps=1.3 q=27.2 size=     256KiB time=00:00:00.45 bitrate=4661.1kbits/s speed=0.0107x elapsed=0:00:42.11    \nframe=   59 fps=1.4 q=28.0 size=     256KiB time=00:00:00.47 bitrate=4415.8kbits/s speed=0.0111x elapsed=0:00:42.63    \nframe=   59 fps=1.4 q=28.0 size=     256KiB time=00:00:00.47 bitrate=4415.8kbits/s speed=0.011x elapsed=0:00:43.15    \nframe=   61 fps=1.4 q=27.1 size=     256KiB time=00:00:00.48 bitrate=4339.7kbits/s speed=0.0111x elapsed=0:00:43.68    \nframe=   62 fps=1.4 q=22.4 size=     256KiB time=00:00:00.50 bitrate=4195.0kbits/s speed=0.0113x elapsed=0:00:44.19    \nframe=   63 fps=1.4 q=28.0 size=     256KiB time=00:00:00.50 bitrate=4126.2kbits/s speed=0.0114x elapsed=0:00:44.72    \nframe=   64 fps=1.4 q=28.5 size=     256KiB time=00:00:00.51 bitrate=4059.7kbits/s speed=0.0114x elapsed=0:00:45.24    \nframe=   64 fps=1.4 q=28.5 size=     256KiB time=00:00:00.51 bitrate=4059.7kbits/s speed=0.0113x elapsed=0:00:45.77    \nframe=   67 fps=1.4 q=22.3 size=     256KiB time=00:00:00.54 bitrate=3872.3kbits/s speed=0.0117x elapsed=0:00:46.30    \nframe=   67 fps=1.4 q=22.3 size=     256KiB time=00:00:00.54 bitrate=3872.3kbits/s speed=0.0116x elapsed=0:00:46.83    \nframe=   69 fps=1.5 q=27.5 size=     256KiB time=00:00:00.55 bitrate=3756.7kbits/s speed=0.0118x elapsed=0:00:47.35    \nframe=   69 fps=1.4 q=27.5 size=     256KiB time=00:00:00.55 bitrate=3756.7kbits/s speed=0.0117x elapsed=0:00:47.88    \nframe=   69 fps=1.4 q=27.5 size=     256KiB time=00:00:00.55 bitrate=3756.7kbits/s speed=0.0115x elapsed=0:00:48.42    \nframe=   70 fps=1.4 q=27.0 size=     256KiB time=00:00:00.56 bitrate=3701.5kbits/s speed=0.0116x elapsed=0:00:48.94    \nframe=   71 fps=1.4 q=27.2 size=     256KiB time=00:00:00.57 bitrate=3647.8kbits/s speed=0.0116x elapsed=0:00:49.47    \nframe=   72 fps=1.4 q=21.7 size=     256KiB time=00:00:00.58 bitrate=3595.7kbits/s speed=0.0117x elapsed=0:00:50.03    \nframe=   73 fps=1.4 q=26.4 size=     256KiB time=00:00:00.59 bitrate=3545.1kbits/s speed=0.0117x elapsed=0:00:50.56    \nframe=   74 fps=1.4 q=27.0 size=     256KiB time=00:00:00.60 bitrate=3495.8kbits/s speed=0.0117x elapsed=0:00:51.10    \nframe=   74 fps=1.4 q=27.0 size=     256KiB time=00:00:00.60 bitrate=3495.8kbits/s speed=0.0116x elapsed=0:00:51.61    \nframe=   74 fps=1.4 q=27.0 size=     256KiB time=00:00:00.60 bitrate=3495.8kbits/s speed=0.0115x elapsed=0:00:52.14    \nframe=   75 fps=1.4 q=28.1 size=     256KiB time=00:00:00.60 bitrate=3448.0kbits/s speed=0.0116x elapsed=0:00:52.66    \nframe=   76 fps=1.4 q=28.1 size=     256KiB time=00:00:00.61 bitrate=3401.4kbits/s speed=0.0116x elapsed=0:00:53.20    \nframe=   77 fps=1.4 q=21.7 size=     256KiB time=00:00:00.62 bitrate=3356.0kbits/s speed=0.0116x elapsed=0:00:53.75    \nframe=   78 fps=1.4 q=26.9 size=     256KiB time=00:00:00.63 bitrate=3311.9kbits/s speed=0.0117x elapsed=0:00:54.29    \nframe=   79 fps=1.4 q=28.7 size=     256KiB time=00:00:00.64 bitrate=3268.8kbits/s speed=0.0117x elapsed=0:00:54.82    \nframe=   79 fps=1.4 q=28.7 size=     256KiB time=00:00:00.64 bitrate=3268.8kbits/s speed=0.0116x elapsed=0:00:55.36    \nframe=   79 fps=1.4 q=28.7 size=     256KiB time=00:00:00.64 bitrate=3268.8kbits/s speed=0.0115x elapsed=0:00:55.88    \nframe=   79 fps=1.4 q=28.7 size=     256KiB time=00:00:00.64 bitrate=3268.8kbits/s speed=0.0114x elapsed=0:00:56.43    \nframe=   80 fps=1.4 q=28.6 size=     256KiB time=00:00:00.65 bitrate=3226.9kbits/s speed=0.0114x elapsed=0:00:56.98    \nframe=   81 fps=1.4 q=27.9 size=     256KiB time=00:00:00.65 bitrate=3186.1kbits/s speed=0.0115x elapsed=0:00:57.49    \nframe=   82 fps=1.4 q=21.7 size=     256KiB time=00:00:00.66 bitrate=3146.3kbits/s speed=0.0115x elapsed=0:00:58.02    \nframe=   83 fps=1.4 q=26.9 size=     512KiB time=00:00:00.67 bitrate=6214.3kbits/s speed=0.0115x elapsed=0:00:58.54    \nframe=   84 fps=1.4 q=28.4 size=     512KiB time=00:00:00.68 bitrate=6138.5kbits/s speed=0.0116x elapsed=0:00:59.06    \nframe=   84 fps=1.4 q=28.4 size=     512KiB time=00:00:00.68 bitrate=6138.5kbits/s speed=0.0115x elapsed=0:00:59.61    \nframe=   84 fps=1.4 q=28.4 size=     512KiB time=00:00:00.68 bitrate=6138.5kbits/s speed=0.0114x elapsed=0:01:00.16    \nframe=   86 fps=1.4 q=28.2 size=     512KiB time=00:00:00.70 bitrate=5992.4kbits/s speed=0.0115x elapsed=0:01:00.69    \nframe=   88 fps=1.4 q=27.2 size=     512KiB time=00:00:00.71 bitrate=5853.0kbits/s speed=0.0117x elapsed=0:01:01.24    \nframe=   89 fps=1.4 q=28.3 size=     512KiB time=00:00:00.72 bitrate=5785.7kbits/s speed=0.0117x elapsed=0:01:01.77    \nframe=   89 fps=1.4 q=28.3 size=     512KiB time=00:00:00.72 bitrate=5785.7kbits/s speed=0.0116x elapsed=0:01:02.31    \nframe=   89 fps=1.4 q=28.3 size=     512KiB time=00:00:00.72 bitrate=5785.7kbits/s speed=0.0115x elapsed=0:01:02.84    \nframe=   91 fps=1.4 q=28.3 size=     512KiB time=00:00:00.74 bitrate=5655.7kbits/s speed=0.0117x elapsed=0:01:03.37    \nframe=   93 fps=1.5 q=26.9 size=     512KiB time=00:00:00.75 bitrate=5531.4kbits/s speed=0.0119x elapsed=0:01:03.89    \nframe=   94 fps=1.5 q=28.4 size=     512KiB time=00:00:00.76 bitrate=5471.3kbits/s speed=0.0119x elapsed=0:01:04.41    \nframe=   94 fps=1.4 q=28.4 size=     512KiB time=00:00:00.76 bitrate=5471.3kbits/s speed=0.0118x elapsed=0:01:04.93    \nframe=   94 fps=1.4 q=28.4 size=     512KiB time=00:00:00.76 bitrate=5471.3kbits/s speed=0.0117x elapsed=0:01:05.45    \nframe=   95 fps=1.4 q=27.5 size=     512KiB time=00:00:00.77 bitrate=5412.5kbits/s speed=0.0117x elapsed=0:01:05.96    \nframe=   96 fps=1.4 q=28.3 size=     512KiB time=00:00:00.78 bitrate=5354.9kbits/s speed=0.0118x elapsed=0:01:06.48    \nframe=   97 fps=1.4 q=21.4 size=     512KiB time=00:00:00.79 bitrate=5298.5kbits/s speed=0.0118x elapsed=0:01:07.05    \nframe=   98 fps=1.5 q=26.8 size=     512KiB time=00:00:00.80 bitrate=5243.3kbits/s speed=0.0118x elapsed=0:01:07.57    \nframe=   99 fps=1.5 q=28.3 size=     512KiB time=00:00:00.80 bitrate=5189.3kbits/s speed=0.0119x elapsed=0:01:08.09    \nframe=   99 fps=1.4 q=28.3 size=     512KiB time=00:00:00.80 bitrate=5189.3kbits/s speed=0.0118x elapsed=0:01:08.61    \nframe=  100 fps=1.4 q=28.3 size=     512KiB time=00:00:00.81 bitrate=5136.3kbits/s speed=0.0118x elapsed=0:01:09.14    \nframe=  101 fps=1.5 q=28.2 size=     512KiB time=00:00:00.82 bitrate=5084.4kbits/s speed=0.0118x elapsed=0:01:09.64    \nframe=  104 fps=1.5 q=28.3 size=     512KiB time=00:00:00.85 bitrate=4934.9kbits/s speed=0.0121x elapsed=0:01:10.17    \nframe=  104 fps=1.5 q=28.3 size=     512KiB time=00:00:00.85 bitrate=4934.9kbits/s speed=0.012x elapsed=0:01:10.70    \nframe=  105 fps=1.5 q=28.1 size=     512KiB time=00:00:00.85 bitrate=4887.0kbits/s speed=0.0121x elapsed=0:01:11.23    \nframe=  105 fps=1.5 q=28.1 size=     512KiB time=00:00:00.85 bitrate=4887.0kbits/s speed=0.012x elapsed=0:01:11.74    \nframe=  107 fps=1.5 q=21.4 size=     512KiB time=00:00:00.87 bitrate=4793.9kbits/s speed=0.0121x elapsed=0:01:12.26    \nframe=  108 fps=1.5 q=26.8 size=     512KiB time=00:00:00.88 bitrate=4748.7kbits/s speed=0.0121x elapsed=0:01:12.79    \nframe=  109 fps=1.5 q=28.4 size=     512KiB time=00:00:00.89 bitrate=4704.3kbits/s speed=0.0122x elapsed=0:01:13.32    \nframe=  109 fps=1.5 q=28.4 size=     512KiB time=00:00:00.89 bitrate=4704.3kbits/s speed=0.0121x elapsed=0:01:13.83    \nframe=  110 fps=1.5 q=28.2 size=     512KiB time=00:00:00.90 bitrate=4660.7kbits/s speed=0.0121x elapsed=0:01:14.35    \nframe=  110 fps=1.5 q=28.2 size=     512KiB time=00:00:00.90 bitrate=4660.7kbits/s speed=0.012x elapsed=0:01:14.87    \nframe=  112 fps=1.5 q=21.7 size=     512KiB time=00:00:00.91 bitrate=4576.0kbits/s speed=0.0122x elapsed=0:01:15.40    \nframe=  114 fps=1.5 q=28.4 size=     768KiB time=00:00:00.93 bitrate=6741.2kbits/s speed=0.0123x elapsed=0:01:15.95    \nframe=  114 fps=1.5 q=28.4 size=     768KiB time=00:00:00.93 bitrate=6741.2kbits/s speed=0.0122x elapsed=0:01:16.48    \nframe=  115 fps=1.5 q=27.7 size=     768KiB time=00:00:00.94 bitrate=6681.6kbits/s speed=0.0122x elapsed=0:01:17.01    \nframe=  115 fps=1.5 q=27.7 size=     768KiB time=00:00:00.94 bitrate=6681.6kbits/s speed=0.0121x elapsed=0:01:17.54    \nframe=  116 fps=1.5 q=27.7 size=     768KiB time=00:00:00.95 bitrate=6623.0kbits/s speed=0.0122x elapsed=0:01:18.05    \nframe=  117 fps=1.5 q=21.4 size=     768KiB time=00:00:00.95 bitrate=6565.4kbits/s speed=0.0122x elapsed=0:01:18.59    \nframe=  119 fps=1.5 q=28.3 size=     768KiB time=00:00:00.97 bitrate=6453.1kbits/s speed=0.0123x elapsed=0:01:19.12    \nframe=  119 fps=1.5 q=28.3 size=     768KiB time=00:00:00.97 bitrate=6453.1kbits/s speed=0.0122x elapsed=0:01:19.66    \nframe=  119 fps=1.5 q=28.3 size=     768KiB time=00:00:00.97 bitrate=6453.1kbits/s speed=0.0122x elapsed=0:01:20.19    \nframe=  121 fps=1.5 q=28.2 size=     768KiB time=00:00:00.99 bitrate=6344.7kbits/s speed=0.0123x elapsed=0:01:20.72    \nframe=  122 fps=1.5 q=21.3 size=     768KiB time=00:00:01.00 bitrate=6291.8kbits/s speed=0.0123x elapsed=0:01:21.27    \nframe=  122 fps=1.5 q=21.3 size=     768KiB time=00:00:01.00 bitrate=6291.8kbits/s speed=0.0122x elapsed=0:01:21.81    \nframe=  124 fps=1.5 q=28.7 size=     768KiB time=00:00:01.01 bitrate=6188.7kbits/s speed=0.0123x elapsed=0:01:22.33    \nframe=  124 fps=1.5 q=28.7 size=     768KiB time=00:00:01.01 bitrate=6188.7kbits/s speed=0.0123x elapsed=0:01:22.87    \nframe=  124 fps=1.5 q=28.7 size=     768KiB time=00:00:01.01 bitrate=6188.7kbits/s speed=0.0122x elapsed=0:01:23.41    \nframe=  124 fps=1.5 q=28.7 size=     768KiB time=00:00:01.01 bitrate=6188.7kbits/s speed=0.0121x elapsed=0:01:23.93    \nframe=  126 fps=1.5 q=28.6 size=     768KiB time=00:00:01.03 bitrate=6088.8kbits/s speed=0.0122x elapsed=0:01:24.45    \nframe=  127 fps=1.5 q=21.6 size=     768KiB time=00:00:01.04 bitrate=6040.1kbits/s speed=0.0123x elapsed=0:01:24.97    \nframe=  128 fps=1.5 q=27.3 size=     768KiB time=00:00:01.05 bitrate=5992.2kbits/s speed=0.0123x elapsed=0:01:25.50    \nframe=  129 fps=1.5 q=28.6 size=     768KiB time=00:00:01.05 bitrate=5945.0kbits/s speed=0.0123x elapsed=0:01:26.03    \nframe=  129 fps=1.5 q=28.6 size=     768KiB time=00:00:01.05 bitrate=5945.0kbits/s speed=0.0122x elapsed=0:01:26.54    \nframe=  130 fps=1.5 q=28.4 size=     768KiB time=00:00:01.06 bitrate=5898.6kbits/s speed=0.0123x elapsed=0:01:27.07    \nframe=  131 fps=1.5 q=28.6 size=     768KiB time=00:00:01.07 bitrate=5852.8kbits/s speed=0.0123x elapsed=0:01:27.60    \nframe=  132 fps=1.5 q=21.4 size=     768KiB time=00:00:01.08 bitrate=5807.8kbits/s speed=0.0123x elapsed=0:01:28.14    \nframe=  132 fps=1.5 q=21.4 size=     768KiB time=00:00:01.08 bitrate=5807.8kbits/s speed=0.0122x elapsed=0:01:28.65    \nframe=  133 fps=1.5 q=27.4 size=     768KiB time=00:00:01.09 bitrate=5763.5kbits/s speed=0.0122x elapsed=0:01:29.17    \nframe=  134 fps=1.5 q=28.6 size=     768KiB time=00:00:01.10 bitrate=5719.8kbits/s speed=0.0123x elapsed=0:01:29.70    \nframe=  134 fps=1.5 q=28.6 size=     768KiB time=00:00:01.10 bitrate=5719.8kbits/s speed=0.0122x elapsed=0:01:30.25    \nframe=  134 fps=1.5 q=28.6 size=     768KiB time=00:00:01.10 bitrate=5719.8kbits/s speed=0.0121x elapsed=0:01:30.76    \nframe=  136 fps=1.5 q=28.3 size=     768KiB time=00:00:01.11 bitrate=5634.5kbits/s speed=0.0122x elapsed=0:01:31.28    \nframe=  137 fps=1.5 q=21.5 size=     768KiB time=00:00:01.12 bitrate=5592.7kbits/s speed=0.0123x elapsed=0:01:31.79    \nframe=  139 fps=1.5 q=28.6 size=     768KiB time=00:00:01.14 bitrate=5511.1kbits/s speed=0.0124x elapsed=0:01:32.32    \nframe=  139 fps=1.5 q=28.6 size=     768KiB time=00:00:01.14 bitrate=5511.1kbits/s speed=0.0123x elapsed=0:01:32.84    \nframe=  139 fps=1.5 q=28.6 size=     768KiB time=00:00:01.14 bitrate=5511.1kbits/s speed=0.0122x elapsed=0:01:33.37    \nframe=  139 fps=1.5 q=28.6 size=     768KiB time=00:00:01.14 bitrate=5511.1kbits/s speed=0.0122x elapsed=0:01:33.90    \nframe=  140 fps=1.5 q=27.5 size=     768KiB time=00:00:01.15 bitrate=5471.1kbits/s speed=0.0122x elapsed=0:01:34.42    \nframe=  140 fps=1.5 q=27.5 size=     768KiB time=00:00:01.15 bitrate=5471.1kbits/s speed=0.0121x elapsed=0:01:34.96    \nframe=  142 fps=1.5 q=21.4 size=     768KiB time=00:00:01.16 bitrate=5393.0kbits/s speed=0.0122x elapsed=0:01:35.48    \nframe=  144 fps=1.5 q=28.6 size=    1024KiB time=00:00:01.18 bitrate=7089.3kbits/s speed=0.0123x elapsed=0:01:36.00    \nframe=  144 fps=1.5 q=28.6 size=    1024KiB time=00:00:01.18 bitrate=7089.3kbits/s speed=0.0123x elapsed=0:01:36.52    \nframe=  144 fps=1.5 q=28.6 size=    1024KiB time=00:00:01.18 bitrate=7089.3kbits/s speed=0.0122x elapsed=0:01:37.04    \nframe=  145 fps=1.5 q=27.6 size=    1024KiB time=00:00:01.19 bitrate=7039.7kbits/s speed=0.0122x elapsed=0:01:37.56    \nframe=  145 fps=1.5 q=27.6 size=    1024KiB time=00:00:01.19 bitrate=7039.7kbits/s speed=0.0121x elapsed=0:01:38.08    \nframe=  146 fps=1.5 q=28.2 size=    1024KiB time=00:00:01.20 bitrate=6990.8kbits/s speed=0.0122x elapsed=0:01:38.60    \nframe=  147 fps=1.5 q=21.4 size=    1024KiB time=00:00:01.20 bitrate=6942.6kbits/s speed=0.0122x elapsed=0:01:39.12    \nframe=  148 fps=1.5 q=26.6 size=    1024KiB time=00:00:01.21 bitrate=6895.0kbits/s speed=0.0122x elapsed=0:01:39.64    \nframe=  149 fps=1.5 q=27.9 size=    1024KiB time=00:00:01.22 bitrate=6848.1kbits/s speed=0.0122x elapsed=0:01:40.17    \nframe=  149 fps=1.5 q=27.9 size=    1024KiB time=00:00:01.22 bitrate=6848.1kbits/s speed=0.0122x elapsed=0:01:40.69    \nframe=  149 fps=1.5 q=27.9 size=    1024KiB time=00:00:01.22 bitrate=6848.1kbits/s speed=0.0121x elapsed=0:01:41.21    \nframe=  151 fps=1.5 q=28.5 size=    1024KiB time=00:00:01.24 bitrate=6756.2kbits/s speed=0.0122x elapsed=0:01:41.72    \nframe=  151 fps=1.5 q=28.5 size=    1024KiB time=00:00:01.24 bitrate=6756.2kbits/s speed=0.0121x elapsed=0:01:42.25    \nframe=  152 fps=1.5 q=21.3 size=    1024KiB time=00:00:01.25 bitrate=6711.2kbits/s speed=0.0122x elapsed=0:01:42.77    \nframe=  153 fps=1.5 q=26.8 size=    1024KiB time=00:00:01.25 bitrate=6666.7kbits/s speed=0.0122x elapsed=0:01:43.32    \nframe=  153 fps=1.5 q=26.8 size=    1024KiB time=00:00:01.25 bitrate=6666.7kbits/s speed=0.0121x elapsed=0:01:43.85    \nframe=  154 fps=1.5 q=28.8 size=    1024KiB time=00:00:01.26 bitrate=6622.9kbits/s speed=0.0121x elapsed=0:01:44.38    \nframe=  155 fps=1.5 q=27.4 size=    1024KiB time=00:00:01.27 bitrate=6579.6kbits/s speed=0.0122x elapsed=0:01:44.92    \nframe=  155 fps=1.5 q=27.4 size=    1024KiB time=00:00:01.27 bitrate=6579.6kbits/s speed=0.0121x elapsed=0:01:45.44    \nframe=  156 fps=1.5 q=28.3 size=    1024KiB time=00:00:01.28 bitrate=6536.9kbits/s speed=0.0121x elapsed=0:01:45.96    \nframe=  156 fps=1.5 q=28.3 size=    1024KiB time=00:00:01.28 bitrate=6536.9kbits/s speed=0.0121x elapsed=0:01:46.50    \nframe=  158 fps=1.5 q=26.7 size=    1024KiB time=00:00:01.30 bitrate=6453.0kbits/s speed=0.0121x elapsed=0:01:47.04    \nframe=  159 fps=1.5 q=27.5 size=    1024KiB time=00:00:01.30 bitrate=6411.9kbits/s speed=0.0122x elapsed=0:01:47.58    \nframe=  160 fps=1.5 q=27.6 size=    1024KiB time=00:00:01.30 bitrate=6411.9kbits/s speed=0.0121x elapsed=0:01:48.12    \nframe=  161 fps=1.5 q=28.4 size=    1024KiB time=00:00:01.32 bitrate=6331.3kbits/s speed=0.0122x elapsed=0:01:48.65    \nframe=  162 fps=1.5 q=21.4 size=    1024KiB time=00:00:01.33 bitrate=6291.7kbits/s speed=0.0122x elapsed=0:01:49.18    \nframe=  163 fps=1.5 q=27.1 size=    1024KiB time=00:00:01.34 bitrate=6252.6kbits/s speed=0.0122x elapsed=0:01:49.69    \nframe=  163 fps=1.5 q=27.1 size=    1024KiB time=00:00:01.34 bitrate=6252.6kbits/s speed=0.0122x elapsed=0:01:50.22    \nframe=  164 fps=1.5 q=28.6 size=    1024KiB time=00:00:01.35 bitrate=6214.0kbits/s speed=0.0122x elapsed=0:01:50.75    \nframe=  165 fps=1.5 q=27.4 size=    1024KiB time=00:00:01.35 bitrate=6175.9kbits/s speed=0.0122x elapsed=0:01:51.27    \nframe=  166 fps=1.5 q=27.4 size=    1024KiB time=00:00:01.36 bitrate=6138.3kbits/s speed=0.0122x elapsed=0:01:51.80    \nframe=  166 fps=1.5 q=27.4 size=    1024KiB time=00:00:01.36 bitrate=6138.3kbits/s speed=0.0122x elapsed=0:01:52.34    \nframe=  167 fps=1.5 q=21.3 size=    1024KiB time=00:00:01.37 bitrate=6101.1kbits/s speed=0.0122x elapsed=0:01:52.85    \nframe=  169 fps=1.5 q=27.6 size=    1024KiB time=00:00:01.39 bitrate=6028.0kbits/s speed=0.0123x elapsed=0:01:53.36    \nframe=  169 fps=1.5 q=27.6 size=    1024KiB time=00:00:01.39 bitrate=6028.0kbits/s speed=0.0122x elapsed=0:01:53.89    \nframe=  169 fps=1.5 q=27.6 size=    1024KiB time=00:00:01.39 bitrate=6028.0kbits/s speed=0.0122x elapsed=0:01:54.41    \nframe=  169 fps=1.5 q=27.6 size=    1024KiB time=00:00:01.39 bitrate=6028.0kbits/s speed=0.0121x elapsed=0:01:54.94    \nframe=  171 fps=1.5 q=28.5 size=    1024KiB time=00:00:01.40 bitrate=5956.7kbits/s speed=0.0122x elapsed=0:01:55.46    \nframe=  174 fps=1.5 q=27.8 size=    1024KiB time=00:00:01.43 bitrate=5852.8kbits/s speed=0.0124x elapsed=0:01:56.00    \nframe=  174 fps=1.5 q=27.8 size=    1024KiB time=00:00:01.43 bitrate=5852.8kbits/s speed=0.0123x elapsed=0:01:56.52    \nframe=  175 fps=1.5 q=27.6 size=    1024KiB time=00:00:01.44 bitrate=5818.9kbits/s speed=0.0123x elapsed=0:01:57.03    \nframe=  178 fps=1.5 q=27.1 size=    1280KiB time=00:00:01.46 bitrate=7149.6kbits/s speed=0.0125x elapsed=0:01:57.56    \nframe=  178 fps=1.5 q=27.1 size=    1280KiB time=00:00:01.46 bitrate=7149.6kbits/s speed=0.0124x elapsed=0:01:58.08    \nframe=  178 fps=1.5 q=27.1 size=    1280KiB time=00:00:01.46 bitrate=7149.6kbits/s speed=0.0124x elapsed=0:01:58.62    \nframe=  179 fps=1.5 q=27.6 size=    1280KiB time=00:00:01.47 bitrate=7109.2kbits/s speed=0.0124x elapsed=0:01:59.14    \nframe=  180 fps=1.5 q=27.6 size=    1280KiB time=00:00:01.48 bitrate=7069.3kbits/s speed=0.0124x elapsed=0:01:59.67    \nframe=  181 fps=1.5 q=28.3 size=    1280KiB time=00:00:01.49 bitrate=7029.8kbits/s speed=0.0124x elapsed=0:02:00.19    \nframe=  182 fps=1.5 q=21.3 size=    1280KiB time=00:00:01.50 bitrate=6990.7kbits/s speed=0.0124x elapsed=0:02:00.71    \nframe=  184 fps=1.5 q=27.3 size=    1280KiB time=00:00:01.51 bitrate=6913.9kbits/s speed=0.0125x elapsed=0:02:01.22    \nframe=  184 fps=1.5 q=27.3 size=    1280KiB time=00:00:01.51 bitrate=6913.9kbits/s speed=0.0125x elapsed=0:02:01.74    \nframe=  184 fps=1.5 q=27.3 size=    1280KiB time=00:00:01.51 bitrate=6913.9kbits/s speed=0.0124x elapsed=0:02:02.26    \nframe=  184 fps=1.5 q=27.3 size=    1280KiB time=00:00:01.51 bitrate=6913.9kbits/s speed=0.0124x elapsed=0:02:02.79    \nframe=  184 fps=1.5 q=27.3 size=    1280KiB time=00:00:01.51 bitrate=6913.9kbits/s speed=0.0123x elapsed=0:02:03.33    \nframe=  186 fps=1.5 q=27.9 size=    1280KiB time=00:00:01.53 bitrate=6838.8kbits/s speed=0.0124x elapsed=0:02:03.85    \nframe=  186 fps=1.5 q=27.9 size=    1280KiB time=00:00:01.53 bitrate=6838.8kbits/s speed=0.0123x elapsed=0:02:04.37    \nframe=  188 fps=1.5 q=27.0 size=    1280KiB time=00:00:01.55 bitrate=6765.2kbits/s speed=0.0124x elapsed=0:02:04.90    \nframe=  189 fps=1.5 q=27.8 size=    1280KiB time=00:00:01.55 bitrate=6729.1kbits/s speed=0.0124x elapsed=0:02:05.43    \nframe=  189 fps=1.5 q=27.8 size=    1280KiB time=00:00:01.55 bitrate=6729.1kbits/s speed=0.0124x elapsed=0:02:05.95    \nframe=  189 fps=1.5 q=27.8 size=    1280KiB time=00:00:01.55 bitrate=6729.1kbits/s speed=0.0123x elapsed=0:02:06.48    \nframe=  191 fps=1.5 q=28.4 size=    1280KiB time=00:00:01.57 bitrate=6657.8kbits/s speed=0.0124x elapsed=0:02:07.04    \nframe=  192 fps=1.5 q=21.3 size=    1280KiB time=00:00:01.58 bitrate=6622.8kbits/s speed=0.0124x elapsed=0:02:07.58    \nframe=  193 fps=1.5 q=26.7 size=    1280KiB time=00:00:01.59 bitrate=6588.1kbits/s speed=0.0124x elapsed=0:02:08.09    \nframe=  193 fps=1.5 q=26.7 size=    1280KiB time=00:00:01.59 bitrate=6588.1kbits/s speed=0.0124x elapsed=0:02:08.61    \nframe=  193 fps=1.5 q=26.7 size=    1280KiB time=00:00:01.59 bitrate=6588.1kbits/s speed=0.0123x elapsed=0:02:09.14    \nframe=  194 fps=1.5 q=27.4 size=    1280KiB time=00:00:01.60 bitrate=6553.8kbits/s speed=0.0123x elapsed=0:02:09.66    \nframe=  194 fps=1.5 q=27.4 size=    1280KiB time=00:00:01.60 bitrate=6553.8kbits/s speed=0.0123x elapsed=0:02:10.18    \nframe=  194 fps=1.5 q=27.4 size=    1280KiB time=00:00:01.60 bitrate=6553.8kbits/s speed=0.0122x elapsed=0:02:10.71    \nframe=  195 fps=1.5 q=27.8 size=    1280KiB time=00:00:01.60 bitrate=6553.8kbits/s speed=0.0122x elapsed=0:02:11.24    \nframe=  195 fps=1.5 q=27.8 size=    1280KiB time=00:00:01.60 bitrate=6519.9kbits/s speed=0.0122x elapsed=0:02:11.76    \nframe=  197 fps=1.5 q=21.1 size=    1280KiB time=00:00:01.62 bitrate=6453.0kbits/s speed=0.0123x elapsed=0:02:12.30    \nframe=  199 fps=1.5 q=28.5 size=    1280KiB time=00:00:01.64 bitrate=6387.5kbits/s speed=0.0124x elapsed=0:02:12.82    \nframe=  199 fps=1.5 q=28.5 size=    1280KiB time=00:00:01.64 bitrate=6387.5kbits/s speed=0.0123x elapsed=0:02:13.35    \nframe=  200 fps=1.5 q=28.2 size=    1280KiB time=00:00:01.65 bitrate=6355.2kbits/s speed=0.0123x elapsed=0:02:13.90    \nframe=  200 fps=1.5 q=28.2 size=    1280KiB time=00:00:01.65 bitrate=6355.2kbits/s speed=0.0123x elapsed=0:02:14.41    \nframe=  203 fps=1.5 q=26.9 size=    1280KiB time=00:00:01.67 bitrate=6260.4kbits/s speed=0.0124x elapsed=0:02:14.94    \nframe=  204 fps=1.5 q=28.6 size=    1280KiB time=00:00:01.68 bitrate=6229.4kbits/s speed=0.0124x elapsed=0:02:15.46    \nframe=  204 fps=1.5 q=28.6 size=    1280KiB time=00:00:01.68 bitrate=6229.4kbits/s speed=0.0124x elapsed=0:02:16.00    \nframe=  205 fps=1.5 q=28.4 size=    1280KiB time=00:00:01.69 bitrate=6198.7kbits/s speed=0.0124x elapsed=0:02:16.51    \nframe=  205 fps=1.5 q=28.4 size=    1280KiB time=00:00:01.69 bitrate=6198.7kbits/s speed=0.0123x elapsed=0:02:17.03    \nframe=  206 fps=1.5 q=28.5 size=    1280KiB time=00:00:01.70 bitrate=6168.3kbits/s speed=0.0124x elapsed=0:02:17.55    \nframe=  207 fps=1.5 q=21.2 size=    1280KiB time=00:00:01.70 bitrate=6138.2kbits/s speed=0.0124x elapsed=0:02:18.09    \nframe=  208 fps=1.5 q=27.1 size=    1536KiB time=00:00:01.70 bitrate=7365.8kbits/s speed=0.0123x elapsed=0:02:18.60    \nframe=  209 fps=1.5 q=28.7 size=    1536KiB time=00:00:01.72 bitrate=7294.6kbits/s speed=0.0124x elapsed=0:02:19.14    \nframe=  209 fps=1.5 q=28.7 size=    1536KiB time=00:00:01.72 bitrate=7294.6kbits/s speed=0.0124x elapsed=0:02:19.66    \nframe=  209 fps=1.5 q=28.7 size=    1536KiB time=00:00:01.72 bitrate=7294.6kbits/s speed=0.0123x elapsed=0:02:20.20    \nframe=  209 fps=1.5 q=28.7 size=    1536KiB time=00:00:01.72 bitrate=7294.6kbits/s speed=0.0123x elapsed=0:02:20.72    \nframe=  210 fps=1.5 q=29.0 size=    1536KiB time=00:00:01.73 bitrate=7259.6kbits/s speed=0.0123x elapsed=0:02:21.24    \nframe=  212 fps=1.5 q=21.4 size=    1536KiB time=00:00:01.75 bitrate=7190.4kbits/s speed=0.0123x elapsed=0:02:21.76    \nframe=  212 fps=1.5 q=21.4 size=    1536KiB time=00:00:01.75 bitrate=7190.4kbits/s speed=0.0123x elapsed=0:02:22.31    \nframe=  213 fps=1.5 q=26.9 size=    1536KiB time=00:00:01.75 bitrate=7156.4kbits/s speed=0.0123x elapsed=0:02:22.85    \nframe=  214 fps=1.5 q=28.9 size=    1536KiB time=00:00:01.76 bitrate=7122.6kbits/s speed=0.0123x elapsed=0:02:23.38    \nframe=  214 fps=1.5 q=28.9 size=    1536KiB time=00:00:01.76 bitrate=7122.6kbits/s speed=0.0123x elapsed=0:02:23.91    \nframe=  214 fps=1.5 q=28.9 size=    1536KiB time=00:00:01.76 bitrate=7122.6kbits/s speed=0.0122x elapsed=0:02:24.42    \nframe=  215 fps=1.5 q=27.8 size=    1536KiB time=00:00:01.77 bitrate=7089.2kbits/s speed=0.0122x elapsed=0:02:24.96    \nframe=  216 fps=1.5 q=28.4 size=    1536KiB time=00:00:01.78 bitrate=7056.0kbits/s speed=0.0123x elapsed=0:02:25.47    \nframe=  217 fps=1.5 q=21.1 size=    1536KiB time=00:00:01.79 bitrate=7023.2kbits/s speed=0.0123x elapsed=0:02:26.02    \nframe=  218 fps=1.5 q=27.3 size=    1536KiB time=00:00:01.80 bitrate=6990.7kbits/s speed=0.0123x elapsed=0:02:26.56    \nframe=  219 fps=1.5 q=28.8 size=    1536KiB time=00:00:01.80 bitrate=6958.5kbits/s speed=0.0123x elapsed=0:02:27.08    \nframe=  219 fps=1.5 q=28.8 size=    1536KiB time=00:00:01.80 bitrate=6958.5kbits/s speed=0.0122x elapsed=0:02:27.63    \nframe=  219 fps=1.5 q=28.8 size=    1536KiB time=00:00:01.80 bitrate=6958.5kbits/s speed=0.0122x elapsed=0:02:28.16    \nframe=  220 fps=1.5 q=28.7 size=    1536KiB time=00:00:01.81 bitrate=6926.6kbits/s speed=0.0122x elapsed=0:02:28.69    \nframe=  221 fps=1.5 q=28.5 size=    1536KiB time=00:00:01.82 bitrate=6894.9kbits/s speed=0.0122x elapsed=0:02:29.21    \nframe=  221 fps=1.5 q=28.5 size=    1536KiB time=00:00:01.82 bitrate=6894.9kbits/s speed=0.0122x elapsed=0:02:29.78    \nframe=  222 fps=1.5 q=21.3 size=    1536KiB time=00:00:01.83 bitrate=6863.6kbits/s speed=0.0122x elapsed=0:02:30.31    \nframe=  223 fps=1.5 q=27.2 size=    1536KiB time=00:00:01.84 bitrate=6832.5kbits/s speed=0.0122x elapsed=0:02:30.83    \nframe=  224 fps=1.5 q=28.9 size=    1536KiB time=00:00:01.85 bitrate=6801.8kbits/s speed=0.0122x elapsed=0:02:31.38    \nframe=  224 fps=1.5 q=28.9 size=    1536KiB time=00:00:01.85 bitrate=6801.8kbits/s speed=0.0122x elapsed=0:02:31.91    \nframe=  224 fps=1.5 q=28.9 size=    1536KiB time=00:00:01.85 bitrate=6801.8kbits/s speed=0.0121x elapsed=0:02:32.42    \nframe=  224 fps=1.5 q=28.9 size=    1536KiB time=00:00:01.85 bitrate=6801.8kbits/s speed=0.0121x elapsed=0:02:32.94    \nframe=  225 fps=1.5 q=28.7 size=    1536KiB time=00:00:01.85 bitrate=6771.3kbits/s speed=0.0121x elapsed=0:02:33.47    \nframe=  227 fps=1.5 q=21.3 size=    1536KiB time=00:00:01.87 bitrate=6711.1kbits/s speed=0.0122x elapsed=0:02:34.00    \nframe=  229 fps=1.5 q=28.8 size=    1536KiB time=00:00:01.89 bitrate=6651.9kbits/s speed=0.0122x elapsed=0:02:34.53    \nframe=  229 fps=1.5 q=28.8 size=    1536KiB time=00:00:01.89 bitrate=6651.9kbits/s speed=0.0122x elapsed=0:02:35.04    \nframe=  230 fps=1.5 q=28.9 size=    1536KiB time=00:00:01.90 bitrate=6622.8kbits/s speed=0.0122x elapsed=0:02:35.56    \nframe=  230 fps=1.5 q=28.9 size=    1536KiB time=00:00:01.90 bitrate=6622.8kbits/s speed=0.0122x elapsed=0:02:36.07    \nframe=  232 fps=1.5 q=21.3 size=    1536KiB time=00:00:01.91 bitrate=6565.2kbits/s speed=0.0122x elapsed=0:02:36.61    \nframe=  233 fps=1.5 q=27.7 size=    1536KiB time=00:00:01.92 bitrate=6536.8kbits/s speed=0.0123x elapsed=0:02:37.13    \nframe=  234 fps=1.5 q=28.7 size=    1536KiB time=00:00:01.93 bitrate=6508.6kbits/s speed=0.0123x elapsed=0:02:37.66    \nframe=  235 fps=1.5 q=28.7 size=    1536KiB time=00:00:01.94 bitrate=6480.6kbits/s speed=0.0123x elapsed=0:02:38.21    \nframe=  236 fps=1.5 q=28.8 size=    1536KiB time=00:00:01.95 bitrate=6453.0kbits/s speed=0.0123x elapsed=0:02:38.73    \nframe=  236 fps=1.5 q=28.8 size=    1536KiB time=00:00:01.95 bitrate=6453.0kbits/s speed=0.0122x elapsed=0:02:39.26    \nframe=  238 fps=1.5 q=27.3 size=    1792KiB time=00:00:01.96 bitrate=7464.6kbits/s speed=0.0123x elapsed=0:02:39.79    \nframe=  238 fps=1.5 q=27.3 size=    1792KiB time=00:00:01.96 bitrate=7464.6kbits/s speed=0.0123x elapsed=0:02:40.30    \nframe=  239 fps=1.5 q=28.9 size=    1792KiB time=00:00:01.97 bitrate=7433.1kbits/s speed=0.0123x elapsed=0:02:40.86    \nframe=  239 fps=1.5 q=28.9 size=    1792KiB time=00:00:01.97 bitrate=7433.1kbits/s speed=0.0122x elapsed=0:02:41.37    \nframe=  241 fps=1.5 q=28.7 size=    1792KiB time=00:00:01.99 bitrate=7370.9kbits/s speed=0.0123x elapsed=0:02:41.88    \nframe=  243 fps=1.5 q=27.6 size=    1792KiB time=00:00:02.00 bitrate=7309.8kbits/s speed=0.0124x elapsed=0:02:42.42    \nframe=  244 fps=1.5 q=28.7 size=    1792KiB time=00:00:02.01 bitrate=7279.5kbits/s speed=0.0124x elapsed=0:02:42.94    \nframe=  244 fps=1.5 q=28.7 size=    1792KiB time=00:00:02.01 bitrate=7279.5kbits/s speed=0.0123x elapsed=0:02:43.46    \nframe=  244 fps=1.5 q=28.7 size=    1792KiB time=00:00:02.01 bitrate=7279.5kbits/s speed=0.0123x elapsed=0:02:44.00    \nframe=  245 fps=1.5 q=28.6 size=    1792KiB time=00:00:02.02 bitrate=7249.6kbits/s speed=0.0123x elapsed=0:02:44.51    \nframe=  245 fps=1.5 q=28.6 size=    1792KiB time=00:00:02.02 bitrate=7249.6kbits/s speed=0.0123x elapsed=0:02:45.04    \nframe=  245 fps=1.5 q=28.6 size=    1792KiB time=00:00:02.02 bitrate=7249.6kbits/s speed=0.0122x elapsed=0:02:45.55    \nframe=  245 fps=1.5 q=28.6 size=    1792KiB time=00:00:02.02 bitrate=7249.6kbits/s speed=0.0122x elapsed=0:02:46.07    \nframe=  245 fps=1.5 q=28.6 size=    1792KiB time=00:00:02.02 bitrate=7249.6kbits/s speed=0.0122x elapsed=0:02:46.60    \nframe=  246 fps=1.5 q=28.6 size=    1792KiB time=00:00:02.03 bitrate=7219.9kbits/s speed=0.0122x elapsed=0:02:47.14    \nframe=  246 fps=1.5 q=28.6 size=    1792KiB time=00:00:02.03 bitrate=7219.9kbits/s speed=0.0121x elapsed=0:02:47.69    \nframe=  247 fps=1.5 q=19.3 size=    1792KiB time=00:00:02.03 bitrate=7219.9kbits/s speed=0.0121x elapsed=0:02:48.27    \nframe=  248 fps=1.5 q=28.4 size=    1792KiB time=00:00:02.05 bitrate=7161.2kbits/s speed=0.0121x elapsed=0:02:48.85    \nframe=  249 fps=1.5 q=29.8 size=    1792KiB time=00:00:02.05 bitrate=7132.2kbits/s speed=0.0122x elapsed=0:02:49.38    \nframe=  250 fps=1.5 q=29.7 size=    1792KiB time=00:00:02.06 bitrate=7103.4kbits/s speed=0.0122x elapsed=0:02:49.92    \nframe=  251 fps=1.5 q=29.7 size=    1792KiB time=00:00:02.07 bitrate=7074.9kbits/s speed=0.0122x elapsed=0:02:50.47    \nframe=  251 fps=1.5 q=29.7 size=    1792KiB time=00:00:02.07 bitrate=7074.9kbits/s speed=0.0121x elapsed=0:02:50.99    \nframe=  252 fps=1.5 q=21.8 size=    1792KiB time=00:00:02.08 bitrate=7046.6kbits/s speed=0.0121x elapsed=0:02:51.52    \nframe=  252 fps=1.5 q=21.8 size=    1792KiB time=00:00:02.08 bitrate=7046.6kbits/s speed=0.0121x elapsed=0:02:52.05    \nframe=  254 fps=1.5 q=29.7 size=    2048KiB time=00:00:02.10 bitrate=7989.3kbits/s speed=0.0122x elapsed=0:02:52.58    \nframe=  255 fps=1.5 q=29.8 size=    2048KiB time=00:00:02.10 bitrate=7957.7kbits/s speed=0.0122x elapsed=0:02:53.10    \nframe=  258 fps=1.5 q=28.8 size=    2048KiB time=00:00:02.13 bitrate=7864.5kbits/s speed=0.0123x elapsed=0:02:53.64    \nframe=  258 fps=1.5 q=28.8 size=    2048KiB time=00:00:02.13 bitrate=7864.5kbits/s speed=0.0122x elapsed=0:02:54.17    \nframe=  259 fps=1.5 q=29.8 size=    2048KiB time=00:00:02.14 bitrate=7833.9kbits/s speed=0.0123x elapsed=0:02:54.68    \nframe=  259 fps=1.5 q=29.8 size=    2048KiB time=00:00:02.14 bitrate=7833.9kbits/s speed=0.0122x elapsed=0:02:55.19    \nframe=  260 fps=1.5 q=29.8 size=    2048KiB time=00:00:02.15 bitrate=7803.5kbits/s speed=0.0122x elapsed=0:02:55.72    \nframe=  262 fps=1.5 q=21.9 size=    2048KiB time=00:00:02.16 bitrate=7743.5kbits/s speed=0.0123x elapsed=0:02:56.25    \nframe=  262 fps=1.5 q=21.9 size=    2048KiB time=00:00:02.16 bitrate=7743.5kbits/s speed=0.0123x elapsed=0:02:56.83    \nframe=  265 fps=1.5 q=30.6 size=    2048KiB time=00:00:02.19 bitrate=7655.2kbits/s speed=0.0124x elapsed=0:02:57.35    \nframe=  266 fps=1.5 q=30.6 size=    2048KiB time=00:00:02.20 bitrate=7626.2kbits/s speed=0.0124x elapsed=0:02:57.86    \nframe=  268 fps=1.5 q=28.8 size=    2048KiB time=00:00:02.21 bitrate=7568.8kbits/s speed=0.0124x elapsed=0:02:58.40    \nframe=  269 fps=1.5 q=30.8 size=    2048KiB time=00:00:02.22 bitrate=7540.5kbits/s speed=0.0124x elapsed=0:02:58.94    \nframe=  270 fps=1.5 q=30.8 size=    2048KiB time=00:00:02.23 bitrate=7512.3kbits/s speed=0.0124x elapsed=0:02:59.50    \nframe=  271 fps=1.5 q=30.8 size=    2048KiB time=00:00:02.24 bitrate=7484.4kbits/s speed=0.0125x elapsed=0:03:00.01    \nframe=  272 fps=1.5 q=21.9 size=    2048KiB time=00:00:02.25 bitrate=7456.7kbits/s speed=0.0125x elapsed=0:03:00.52    \nframe=  272 fps=1.5 q=21.9 size=    2048KiB time=00:00:02.25 bitrate=7456.7kbits/s speed=0.0124x elapsed=0:03:01.05    \nframe=  276 fps=1.5 q=30.7 size=    2048KiB time=00:00:02.28 bitrate=7347.8kbits/s speed=0.0126x elapsed=0:03:01.57    \nframe=  278 fps=1.5 q=28.6 size=    2048KiB time=00:00:02.30 bitrate=7294.6kbits/s speed=0.0126x elapsed=0:03:02.08    \nframe=  279 fps=1.5 q=30.8 size=    2048KiB time=00:00:02.30 bitrate=7268.3kbits/s speed=0.0126x elapsed=0:03:02.60    \nframe=  280 fps=1.5 q=30.6 size=    2048KiB time=00:00:02.31 bitrate=7242.1kbits/s speed=0.0127x elapsed=0:03:03.13    \nframe=  282 fps=1.5 q=21.9 size=    2048KiB time=00:00:02.33 bitrate=7190.4kbits/s speed=0.0127x elapsed=0:03:03.64    \nframe=  283 fps=1.5 q=28.6 size=    2048KiB time=00:00:02.34 bitrate=7164.8kbits/s speed=0.0127x elapsed=0:03:04.15    \nframe=  285 fps=1.5 q=30.7 size=    2048KiB time=00:00:02.35 bitrate=7114.2kbits/s speed=0.0128x elapsed=0:03:04.66    \nframe=  286 fps=1.5 q=30.6 size=    2048KiB time=00:00:02.36 bitrate=7089.1kbits/s speed=0.0128x elapsed=0:03:05.19    \nframe=  289 fps=1.6 q=30.7 size=    2304KiB time=00:00:02.39 bitrate=7891.9kbits/s speed=0.0129x elapsed=0:03:05.71    \nframe=  291 fps=1.6 q=30.6 size=    2304KiB time=00:00:02.40 bitrate=7837.3kbits/s speed=0.0129x elapsed=0:03:06.22    \nframe=  292 fps=1.6 q=21.9 size=    2304KiB time=00:00:02.41 bitrate=7810.2kbits/s speed=0.0129x elapsed=0:03:06.74    \nframe=  294 fps=1.6 q=30.7 size=    2304KiB time=00:00:02.43 bitrate=7756.7kbits/s speed=0.013x elapsed=0:03:07.27    \nframe=  296 fps=1.6 q=30.5 size=    2304KiB time=00:00:02.45 bitrate=7704.0kbits/s speed=0.013x elapsed=0:03:07.81    \nframe=  298 fps=1.6 q=28.7 size=    2304KiB time=00:00:02.46 bitrate=7651.9kbits/s speed=0.0131x elapsed=0:03:08.32    \nframe=  299 fps=1.6 q=30.8 size=    2304KiB time=00:00:02.47 bitrate=7626.1kbits/s speed=0.0131x elapsed=0:03:08.83    \nframe=  301 fps=1.6 q=29.7 size=    2304KiB time=00:00:02.49 bitrate=7575.1kbits/s speed=0.0132x elapsed=0:03:09.38    \nframe=  303 fps=1.6 q=28.6 size=    2304KiB time=00:00:02.50 bitrate=7524.8kbits/s speed=0.0132x elapsed=0:03:09.91    \nframe=  305 fps=1.6 q=29.7 size=    2304KiB time=00:00:02.52 bitrate=7475.1kbits/s speed=0.0133x elapsed=0:03:10.43    \nframe=  306 fps=1.6 q=29.4 size=    2304KiB time=00:00:02.53 bitrate=7450.5kbits/s speed=0.0133x elapsed=0:03:10.96    \nframe=  308 fps=1.6 q=28.7 size=    2304KiB time=00:00:02.55 bitrate=7401.9kbits/s speed=0.0133x elapsed=0:03:11.48    \nframe=  309 fps=1.6 q=29.8 size=    2304KiB time=00:00:02.55 bitrate=7377.7kbits/s speed=0.0133x elapsed=0:03:11.99    \nframe=  311 fps=1.6 q=28.8 size=    2304KiB time=00:00:02.57 bitrate=7330.0kbits/s speed=0.0134x elapsed=0:03:12.50    \nframe=  312 fps=1.6 q=21.6 size=    2304KiB time=00:00:02.58 bitrate=7306.3kbits/s speed=0.0134x elapsed=0:03:13.04    \nframe=  315 fps=1.6 q=29.7 size=    2304KiB time=00:00:02.60 bitrate=7236.3kbits/s speed=0.0135x elapsed=0:03:13.56    \nframe=  315 fps=1.6 q=29.7 size=    2304KiB time=00:00:02.60 bitrate=7236.3kbits/s speed=0.0134x elapsed=0:03:14.09    \nframe=  317 fps=1.6 q=21.6 size=    2304KiB time=00:00:02.62 bitrate=7190.4kbits/s speed=0.0135x elapsed=0:03:14.61    \nframe=  317 fps=1.6 q=21.6 size=    2304KiB time=00:00:02.62 bitrate=7190.4kbits/s speed=0.0135x elapsed=0:03:15.13    \nframe=  319 fps=1.6 q=28.9 size=    2304KiB time=00:00:02.64 bitrate=7145.0kbits/s speed=0.0135x elapsed=0:03:15.65    \nframe=  320 fps=1.6 q=28.6 size=    2304KiB time=00:00:02.65 bitrate=7122.5kbits/s speed=0.0135x elapsed=0:03:16.16    \nframe=  321 fps=1.6 q=28.7 size=    2304KiB time=00:00:02.65 bitrate=7100.2kbits/s speed=0.0135x elapsed=0:03:16.68    \nframe=  323 fps=1.6 q=27.6 size=    2304KiB time=00:00:02.67 bitrate=7056.0kbits/s speed=0.0136x elapsed=0:03:17.20    \nframe=  324 fps=1.6 q=29.8 size=    2304KiB time=00:00:02.68 bitrate=7034.1kbits/s speed=0.0136x elapsed=0:03:17.75    \nframe=  324 fps=1.6 q=29.8 size=    2304KiB time=00:00:02.68 bitrate=7034.1kbits/s speed=0.0135x elapsed=0:03:18.30    \nframe=  325 fps=1.6 q=29.6 size=    2304KiB time=00:00:02.69 bitrate=7012.3kbits/s speed=0.0135x elapsed=0:03:18.88    \nframe=  326 fps=1.6 q=28.6 size=    2304KiB time=00:00:02.70 bitrate=6990.6kbits/s speed=0.0135x elapsed=0:03:19.43    \nframe=  326 fps=1.6 q=28.6 size=    2304KiB time=00:00:02.70 bitrate=6990.6kbits/s speed=0.0135x elapsed=0:03:19.97    \nframe=  327 fps=1.6 q=21.8 size=    2304KiB time=00:00:02.70 bitrate=6969.1kbits/s speed=0.0135x elapsed=0:03:20.53    \nframe=  328 fps=1.6 q=27.3 size=    2560KiB time=00:00:02.71 bitrate=7719.7kbits/s speed=0.0135x elapsed=0:03:21.05    \nframe=  329 fps=1.6 q=28.8 size=    2560KiB time=00:00:02.72 bitrate=7696.1kbits/s speed=0.0135x elapsed=0:03:21.59    \nframe=  330 fps=1.6 q=28.7 size=    2560KiB time=00:00:02.73 bitrate=7672.6kbits/s speed=0.0135x elapsed=0:03:22.13    \nframe=  330 fps=1.6 q=28.7 size=    2560KiB time=00:00:02.73 bitrate=7672.6kbits/s speed=0.0135x elapsed=0:03:22.67    \nframe=  331 fps=1.6 q=28.3 size=    2560KiB time=00:00:02.74 bitrate=7649.3kbits/s speed=0.0135x elapsed=0:03:23.19    \nframe=  331 fps=1.6 q=28.3 size=    2560KiB time=00:00:02.74 bitrate=7649.3kbits/s speed=0.0135x elapsed=0:03:23.73    \nframe=  333 fps=1.6 q=27.5 size=    2560KiB time=00:00:02.75 bitrate=7603.1kbits/s speed=0.0135x elapsed=0:03:24.27    \nframe=  333 fps=1.6 q=27.5 size=    2560KiB time=00:00:02.75 bitrate=7603.1kbits/s speed=0.0135x elapsed=0:03:24.79    \nframe=  334 fps=1.6 q=28.6 size=    2560KiB time=00:00:02.75 bitrate=7603.1kbits/s speed=0.0134x elapsed=0:03:25.30    \nframe=  335 fps=1.6 q=28.6 size=    2560KiB time=00:00:02.77 bitrate=7557.4kbits/s speed=0.0135x elapsed=0:03:25.83    \nframe=  336 fps=1.6 q=28.3 size=    2560KiB time=00:00:02.78 bitrate=7534.8kbits/s speed=0.0135x elapsed=0:03:26.35    \nframe=  338 fps=1.6 q=26.9 size=    2560KiB time=00:00:02.80 bitrate=7490.0kbits/s speed=0.0135x elapsed=0:03:26.89    \nframe=  341 fps=1.6 q=27.3 size=    2560KiB time=00:00:02.82 bitrate=7423.7kbits/s speed=0.0136x elapsed=0:03:27.40    \nframe=  342 fps=1.6 q=21.3 size=    2560KiB time=00:00:02.83 bitrate=7401.8kbits/s speed=0.0136x elapsed=0:03:27.93    \nframe=  342 fps=1.6 q=21.3 size=    2560KiB time=00:00:02.83 bitrate=7401.8kbits/s speed=0.0136x elapsed=0:03:28.44    \nframe=  343 fps=1.6 q=27.3 size=    2560KiB time=00:00:02.84 bitrate=7380.1kbits/s speed=0.0136x elapsed=0:03:28.98    \nframe=  344 fps=1.6 q=28.7 size=    2560KiB time=00:00:02.85 bitrate=7358.6kbits/s speed=0.0136x elapsed=0:03:29.51    \nframe=  345 fps=1.6 q=28.6 size=    2560KiB time=00:00:02.85 bitrate=7337.1kbits/s speed=0.0136x elapsed=0:03:30.05    \nframe=  345 fps=1.6 q=28.6 size=    2560KiB time=00:00:02.85 bitrate=7337.1kbits/s speed=0.0136x elapsed=0:03:30.58    \nframe=  346 fps=1.6 q=28.3 size=    2560KiB time=00:00:02.86 bitrate=7315.8kbits/s speed=0.0136x elapsed=0:03:31.10    \nframe=  347 fps=1.6 q=21.6 size=    2560KiB time=00:00:02.87 bitrate=7294.6kbits/s speed=0.0136x elapsed=0:03:31.65    \nframe=  347 fps=1.6 q=21.6 size=    2560KiB time=00:00:02.87 bitrate=7294.6kbits/s speed=0.0135x elapsed=0:03:32.20    \nframe=  348 fps=1.6 q=27.2 size=    2560KiB time=00:00:02.88 bitrate=7273.5kbits/s speed=0.0136x elapsed=0:03:32.74    \nframe=  349 fps=1.6 q=28.9 size=    2560KiB time=00:00:02.89 bitrate=7252.5kbits/s speed=0.0136x elapsed=0:03:33.26    \nframe=  349 fps=1.6 q=28.9 size=    2560KiB time=00:00:02.89 bitrate=7252.5kbits/s speed=0.0135x elapsed=0:03:33.77    \nframe=  350 fps=1.6 q=28.7 size=    2560KiB time=00:00:02.90 bitrate=7231.7kbits/s speed=0.0135x elapsed=0:03:34.29    \nframe=  352 fps=1.6 q=21.3 size=    2560KiB time=00:00:02.91 bitrate=7190.4kbits/s speed=0.0136x elapsed=0:03:34.83    \nframe=  354 fps=1.6 q=28.7 size=    2560KiB time=00:00:02.93 bitrate=7149.5kbits/s speed=0.0136x elapsed=0:03:35.37    \nframe=  354 fps=1.6 q=28.7 size=    2560KiB time=00:00:02.93 bitrate=7149.5kbits/s speed=0.0136x elapsed=0:03:35.90    \nframe=  356 fps=1.6 q=28.4 size=    2560KiB time=00:00:02.95 bitrate=7109.1kbits/s speed=0.0136x elapsed=0:03:36.41    \nframe=  357 fps=1.6 q=21.2 size=    2560KiB time=00:00:02.95 bitrate=7089.1kbits/s speed=0.0136x elapsed=0:03:36.94    \nframe=  359 fps=1.7 q=28.7 size=    2560KiB time=00:00:02.97 bitrate=7049.4kbits/s speed=0.0137x elapsed=0:03:37.51    \nframe=  360 fps=1.7 q=28.7 size=    2560KiB time=00:00:02.98 bitrate=7029.7kbits/s speed=0.0137x elapsed=0:03:38.05    \nframe=  362 fps=1.7 q=21.4 size=    2560KiB time=00:00:03.00 bitrate=6990.6kbits/s speed=0.0137x elapsed=0:03:38.58    \nframe=  363 fps=1.7 q=27.2 size=    2816KiB time=00:00:03.00 bitrate=7668.4kbits/s speed=0.0137x elapsed=0:03:39.10    \nframe=  365 fps=1.7 q=28.5 size=    2816KiB time=00:00:03.02 bitrate=7626.1kbits/s speed=0.0138x elapsed=0:03:39.61    \nframe=  366 fps=1.7 q=28.2 size=    2816KiB time=00:00:03.03 bitrate=7605.2kbits/s speed=0.0138x elapsed=0:03:40.13    \nframe=  367 fps=1.7 q=21.2 size=    2816KiB time=00:00:03.04 bitrate=7584.3kbits/s speed=0.0138x elapsed=0:03:40.65    \nframe=  369 fps=1.7 q=28.7 size=    2816KiB time=00:00:03.05 bitrate=7543.0kbits/s speed=0.0138x elapsed=0:03:41.17    \nframe=  369 fps=1.7 q=28.7 size=    2816KiB time=00:00:03.05 bitrate=7543.0kbits/s speed=0.0138x elapsed=0:03:41.70    \nframe=  370 fps=1.7 q=28.6 size=    2816KiB time=00:00:03.06 bitrate=7522.5kbits/s speed=0.0138x elapsed=0:03:42.21    \nframe=  371 fps=1.7 q=28.3 size=    2816KiB time=00:00:03.07 bitrate=7502.1kbits/s speed=0.0138x elapsed=0:03:42.74    \nframe=  373 fps=1.7 q=26.6 size=    2816KiB time=00:00:03.09 bitrate=7461.7kbits/s speed=0.0138x elapsed=0:03:43.29    \nframe=  374 fps=1.7 q=28.6 size=    2816KiB time=00:00:03.10 bitrate=7441.6kbits/s speed=0.0139x elapsed=0:03:43.82    \nframe=  374 fps=1.7 q=28.6 size=    2816KiB time=00:00:03.10 bitrate=7441.6kbits/s speed=0.0138x elapsed=0:03:44.34    \nframe=  376 fps=1.7 q=28.5 size=    2816KiB time=00:00:03.11 bitrate=7401.8kbits/s speed=0.0139x elapsed=0:03:44.85    \nframe=  378 fps=1.7 q=27.6 size=    2816KiB time=00:00:03.13 bitrate=7362.5kbits/s speed=0.0139x elapsed=0:03:45.39    \nframe=  379 fps=1.7 q=28.7 size=    2816KiB time=00:00:03.14 bitrate=7342.9kbits/s speed=0.0139x elapsed=0:03:45.90    \nframe=  379 fps=1.7 q=28.7 size=    2816KiB time=00:00:03.14 bitrate=7342.9kbits/s speed=0.0139x elapsed=0:03:46.45    \nframe=  381 fps=1.7 q=28.4 size=    2816KiB time=00:00:03.15 bitrate=7304.2kbits/s speed=0.0139x elapsed=0:03:46.97    \nframe=  382 fps=1.7 q=21.2 size=    2816KiB time=00:00:03.16 bitrate=7285.0kbits/s speed=0.0139x elapsed=0:03:47.51    \nframe=  384 fps=1.7 q=28.8 size=    2816KiB time=00:00:03.18 bitrate=7246.8kbits/s speed=0.014x elapsed=0:03:48.03    \nframe=  384 fps=1.7 q=28.8 size=    2816KiB time=00:00:03.18 bitrate=7246.8kbits/s speed=0.0139x elapsed=0:03:48.55    \nframe=  386 fps=1.7 q=28.2 size=    2816KiB time=00:00:03.20 bitrate=7209.1kbits/s speed=0.014x elapsed=0:03:49.08    \nframe=  386 fps=1.7 q=28.2 size=    2816KiB time=00:00:03.20 bitrate=7209.1kbits/s speed=0.0139x elapsed=0:03:49.60    \nframe=  387 fps=1.7 q=21.4 size=    2816KiB time=00:00:03.20 bitrate=7190.3kbits/s speed=0.0139x elapsed=0:03:50.14    \nframe=  388 fps=1.7 q=27.4 size=    2816KiB time=00:00:03.21 bitrate=7171.7kbits/s speed=0.0139x elapsed=0:03:50.66    \nframe=  391 fps=1.7 q=28.0 size=    2816KiB time=00:00:03.24 bitrate=7116.4kbits/s speed=0.014x elapsed=0:03:51.19    \nframe=  391 fps=1.7 q=28.0 size=    2816KiB time=00:00:03.24 bitrate=7116.4kbits/s speed=0.014x elapsed=0:03:51.71    \nframe=  391 fps=1.7 q=28.0 size=    2816KiB time=00:00:03.24 bitrate=7116.4kbits/s speed=0.014x elapsed=0:03:52.23    \nframe=  392 fps=1.7 q=21.2 size=    2816KiB time=00:00:03.25 bitrate=7098.2kbits/s speed=0.014x elapsed=0:03:52.77    \nframe=  393 fps=1.7 q=27.4 size=    3072KiB time=00:00:03.25 bitrate=7723.6kbits/s speed=0.014x elapsed=0:03:53.29    \nframe=  394 fps=1.7 q=28.7 size=    3072KiB time=00:00:03.26 bitrate=7703.9kbits/s speed=0.014x elapsed=0:03:53.81    \nframe=  396 fps=1.7 q=28.2 size=    3072KiB time=00:00:03.28 bitrate=7664.8kbits/s speed=0.014x elapsed=0:03:54.32    \nframe=  398 fps=1.7 q=27.4 size=    3072KiB time=00:00:03.30 bitrate=7626.1kbits/s speed=0.0141x elapsed=0:03:54.85    \nframe=  399 fps=1.7 q=28.7 size=    3072KiB time=00:00:03.30 bitrate=7606.9kbits/s speed=0.0141x elapsed=0:03:55.38    \nframe=  400 fps=1.7 q=28.5 size=    3072KiB time=00:00:03.31 bitrate=7587.8kbits/s speed=0.0141x elapsed=0:03:55.89    \nframe=  401 fps=1.7 q=27.9 size=    3072KiB time=00:00:03.32 bitrate=7568.8kbits/s speed=0.0141x elapsed=0:03:56.42    \nframe=  403 fps=1.7 q=27.3 size=    3072KiB time=00:00:03.34 bitrate=7531.0kbits/s speed=0.0141x elapsed=0:03:56.94    \nframe=  404 fps=1.7 q=28.6 size=    3072KiB time=00:00:03.35 bitrate=7512.3kbits/s speed=0.0141x elapsed=0:03:57.47    \nframe=  405 fps=1.7 q=28.6 size=    3072KiB time=00:00:03.35 bitrate=7493.7kbits/s speed=0.0141x elapsed=0:03:57.98    \nframe=  406 fps=1.7 q=27.6 size=    3072KiB time=00:00:03.36 bitrate=7475.1kbits/s speed=0.0141x elapsed=0:03:58.49    \nframe=  409 fps=1.7 q=28.8 size=    3072KiB time=00:00:03.39 bitrate=7420.0kbits/s speed=0.0142x elapsed=0:03:59.02    \nframe=  410 fps=1.7 q=28.5 size=    3072KiB time=00:00:03.40 bitrate=7401.8kbits/s speed=0.0142x elapsed=0:03:59.52    \nframe=  411 fps=1.7 q=28.3 size=    3072KiB time=00:00:03.40 bitrate=7383.7kbits/s speed=0.0142x elapsed=0:04:00.05    \nframe=  412 fps=1.7 q=21.3 size=    3072KiB time=00:00:03.41 bitrate=7365.7kbits/s speed=0.0142x elapsed=0:04:00.57    \nframe=  414 fps=1.7 q=28.6 size=    3072KiB time=00:00:03.43 bitrate=7330.0kbits/s speed=0.0142x elapsed=0:04:01.14    \nframe=  414 fps=1.7 q=28.6 size=    3072KiB time=00:00:03.43 bitrate=7330.0kbits/s speed=0.0142x elapsed=0:04:01.68    \nframe=  415 fps=1.7 q=28.8 size=    3072KiB time=00:00:03.44 bitrate=7312.2kbits/s speed=0.0142x elapsed=0:04:02.21    \nframe=  418 fps=1.7 q=27.3 size=    3072KiB time=00:00:03.46 bitrate=7259.5kbits/s speed=0.0143x elapsed=0:04:02.74    \nframe=  419 fps=1.7 q=28.6 size=    3072KiB time=00:00:03.47 bitrate=7242.1kbits/s speed=0.0143x elapsed=0:04:03.28    \nframe=  420 fps=1.7 q=28.6 size=    3072KiB time=00:00:03.48 bitrate=7224.7kbits/s speed=0.0143x elapsed=0:04:03.83    \nframe=  421 fps=1.7 q=28.5 size=    3072KiB time=00:00:03.49 bitrate=7207.5kbits/s speed=0.0143x elapsed=0:04:04.39    \nframe=  423 fps=1.7 q=27.1 size=    3072KiB time=00:00:03.50 bitrate=7173.3kbits/s speed=0.0143x elapsed=0:04:04.93    \nframe=  424 fps=1.7 q=28.7 size=    3072KiB time=00:00:03.51 bitrate=7156.3kbits/s speed=0.0143x elapsed=0:04:05.44    \nframe=  424 fps=1.7 q=28.7 size=    3072KiB time=00:00:03.51 bitrate=7156.3kbits/s speed=0.0143x elapsed=0:04:05.99    \nframe=  426 fps=1.7 q=28.3 size=    3072KiB time=00:00:03.53 bitrate=7122.5kbits/s speed=0.0143x elapsed=0:04:06.51    \nframe=  428 fps=1.7 q=27.1 size=    3328KiB time=00:00:03.55 bitrate=7679.8kbits/s speed=0.0144x elapsed=0:04:07.02    \nframe=  429 fps=1.7 q=28.5 size=    3328KiB time=00:00:03.55 bitrate=7661.8kbits/s speed=0.0144x elapsed=0:04:07.55    \nframe=  429 fps=1.7 q=28.5 size=    3328KiB time=00:00:03.55 bitrate=7661.8kbits/s speed=0.0143x elapsed=0:04:08.07    \nframe=  429 fps=1.7 q=28.5 size=    3328KiB time=00:00:03.55 bitrate=7661.8kbits/s speed=0.0143x elapsed=0:04:08.59    \nframe=  431 fps=1.7 q=28.1 size=    3328KiB time=00:00:03.57 bitrate=7626.1kbits/s speed=0.0144x elapsed=0:04:09.11    \nframe=  433 fps=1.7 q=27.2 size=    3328KiB time=00:00:03.59 bitrate=7590.7kbits/s speed=0.0144x elapsed=0:04:09.63    \nframe=  434 fps=1.7 q=28.7 size=    3328KiB time=00:00:03.60 bitrate=7573.1kbits/s speed=0.0144x elapsed=0:04:10.17    \nframe=  436 fps=1.7 q=28.4 size=    3328KiB time=00:00:03.61 bitrate=7538.2kbits/s speed=0.0144x elapsed=0:04:10.70    \nframe=  437 fps=1.7 q=21.2 size=    3328KiB time=00:00:03.62 bitrate=7520.9kbits/s speed=0.0144x elapsed=0:04:11.21    \nframe=  439 fps=1.7 q=28.7 size=    3328KiB time=00:00:03.64 bitrate=7486.5kbits/s speed=0.0145x elapsed=0:04:11.74    \nframe=  440 fps=1.7 q=28.5 size=    3328KiB time=00:00:03.65 bitrate=7469.4kbits/s speed=0.0145x elapsed=0:04:12.27    \nframe=  440 fps=1.7 q=28.5 size=    3328KiB time=00:00:03.65 bitrate=7469.4kbits/s speed=0.0144x elapsed=0:04:12.79    \nframe=  441 fps=1.7 q=28.3 size=    3328KiB time=00:00:03.65 bitrate=7452.4kbits/s speed=0.0144x elapsed=0:04:13.33    \nframe=  442 fps=1.7 q=21.4 size=    3328KiB time=00:00:03.66 bitrate=7435.5kbits/s speed=0.0144x elapsed=0:04:13.85    \nframe=  443 fps=1.7 q=27.4 size=    3328KiB time=00:00:03.67 bitrate=7418.6kbits/s speed=0.0144x elapsed=0:04:14.37    \nframe=  445 fps=1.7 q=28.5 size=    3328KiB time=00:00:03.69 bitrate=7385.1kbits/s speed=0.0145x elapsed=0:04:14.89    \nframe=  447 fps=1.7 q=21.2 size=    3328KiB time=00:00:03.70 bitrate=7351.9kbits/s speed=0.0145x elapsed=0:04:15.43    \nframe=  448 fps=1.8 q=27.2 size=    3328KiB time=00:00:03.71 bitrate=7335.4kbits/s speed=0.0145x elapsed=0:04:15.97    \nframe=  449 fps=1.8 q=28.7 size=    3328KiB time=00:00:03.72 bitrate=7319.0kbits/s speed=0.0145x elapsed=0:04:16.48    \nframe=  450 fps=1.8 q=28.4 size=    3328KiB time=00:00:03.73 bitrate=7302.7kbits/s speed=0.0145x elapsed=0:04:17.03    \nframe=  451 fps=1.8 q=28.5 size=    3328KiB time=00:00:03.74 bitrate=7286.4kbits/s speed=0.0145x elapsed=0:04:17.59    \nframe=  452 fps=1.8 q=21.2 size=    3328KiB time=00:00:03.75 bitrate=7270.2kbits/s speed=0.0145x elapsed=0:04:18.11    \nframe=  452 fps=1.7 q=21.2 size=    3328KiB time=00:00:03.75 bitrate=7270.2kbits/s speed=0.0145x elapsed=0:04:18.64    \nframe=  454 fps=1.8 q=28.7 size=    3328KiB time=00:00:03.76 bitrate=7238.1kbits/s speed=0.0145x elapsed=0:04:19.16    \nframe=  454 fps=1.7 q=28.7 size=    3328KiB time=00:00:03.76 bitrate=7238.1kbits/s speed=0.0145x elapsed=0:04:19.69    \nframe=  455 fps=1.7 q=28.7 size=    3328KiB time=00:00:03.77 bitrate=7222.1kbits/s speed=0.0145x elapsed=0:04:20.22    \nframe=  456 fps=1.7 q=28.4 size=    3328KiB time=00:00:03.78 bitrate=7206.2kbits/s speed=0.0145x elapsed=0:04:20.74    \nframe=  457 fps=1.7 q=21.3 size=    3328KiB time=00:00:03.79 bitrate=7190.3kbits/s speed=0.0145x elapsed=0:04:21.26    \nframe=  459 fps=1.8 q=28.6 size=    3584KiB time=00:00:03.80 bitrate=7709.5kbits/s speed=0.0145x elapsed=0:04:21.77    \nframe=  459 fps=1.7 q=28.6 size=    3584KiB time=00:00:03.80 bitrate=7709.5kbits/s speed=0.0145x elapsed=0:04:22.30    \nframe=  461 fps=1.8 q=28.2 size=    3584KiB time=00:00:03.82 bitrate=7675.9kbits/s speed=0.0146x elapsed=0:04:22.80    \nframe=  463 fps=1.8 q=27.3 size=    3584KiB time=00:00:03.84 bitrate=7642.6kbits/s speed=0.0146x elapsed=0:04:23.32    \nframe=  464 fps=1.8 q=28.6 size=    3584KiB time=00:00:03.85 bitrate=7626.1kbits/s speed=0.0146x elapsed=0:04:23.84    \nframe=  465 fps=1.8 q=28.6 size=    3584KiB time=00:00:03.85 bitrate=7609.6kbits/s speed=0.0146x elapsed=0:04:24.35    \nframe=  466 fps=1.8 q=28.0 size=    3584KiB time=00:00:03.86 bitrate=7593.2kbits/s speed=0.0146x elapsed=0:04:24.88    \nframe=  467 fps=1.8 q=21.1 size=    3584KiB time=00:00:03.87 bitrate=7576.9kbits/s speed=0.0146x elapsed=0:04:25.40    \nframe=  467 fps=1.8 q=21.1 size=    3584KiB time=00:00:03.87 bitrate=7576.9kbits/s speed=0.0146x elapsed=0:04:25.94    \nframe=  469 fps=1.8 q=28.7 size=    3584KiB time=00:00:03.89 bitrate=7544.4kbits/s speed=0.0146x elapsed=0:04:26.46    \nframe=  470 fps=1.8 q=28.8 size=    3584KiB time=00:00:03.90 bitrate=7528.3kbits/s speed=0.0146x elapsed=0:04:26.97    \nframe=  472 fps=1.8 q=21.3 size=    3584KiB time=00:00:03.91 bitrate=7496.3kbits/s speed=0.0146x elapsed=0:04:27.50    \nframe=  474 fps=1.8 q=28.6 size=    3584KiB time=00:00:03.93 bitrate=7464.5kbits/s speed=0.0147x elapsed=0:04:28.02    \nframe=  475 fps=1.8 q=28.7 size=    3584KiB time=00:00:03.94 bitrate=7448.7kbits/s speed=0.0147x elapsed=0:04:28.56    \nframe=  476 fps=1.8 q=28.5 size=    3584KiB time=00:00:03.95 bitrate=7433.0kbits/s speed=0.0147x elapsed=0:04:29.07    \nframe=  478 fps=1.8 q=28.4 size=    3584KiB time=00:00:03.96 bitrate=7401.8kbits/s speed=0.0147x elapsed=0:04:29.59    \nframe=  479 fps=1.8 q=29.7 size=    3584KiB time=00:00:03.97 bitrate=7386.3kbits/s speed=0.0147x elapsed=0:04:30.13    \nframe=  480 fps=1.8 q=29.7 size=    3584KiB time=00:00:03.98 bitrate=7370.8kbits/s speed=0.0147x elapsed=0:04:30.65    \nframe=  482 fps=1.8 q=21.4 size=    3584KiB time=00:00:04.00 bitrate=7340.1kbits/s speed=0.0147x elapsed=0:04:31.18    \nframe=  482 fps=1.8 q=21.4 size=    3584KiB time=00:00:04.00 bitrate=7340.1kbits/s speed=0.0147x elapsed=0:04:31.71    \nframe=  483 fps=1.8 q=28.5 size=    3584KiB time=00:00:04.00 bitrate=7324.9kbits/s speed=0.0147x elapsed=0:04:32.23    \nframe=  485 fps=1.8 q=29.7 size=    3584KiB time=00:00:04.02 bitrate=7294.5kbits/s speed=0.0148x elapsed=0:04:32.75    \nframe=  486 fps=1.8 q=29.7 size=    3584KiB time=00:00:04.03 bitrate=7279.5kbits/s speed=0.0148x elapsed=0:04:33.28    \nframe=  488 fps=1.8 q=28.1 size=    3840KiB time=00:00:04.05 bitrate=7767.3kbits/s speed=0.0148x elapsed=0:04:33.79    \nframe=  488 fps=1.8 q=28.1 size=    3840KiB time=00:00:04.05 bitrate=7767.3kbits/s speed=0.0148x elapsed=0:04:34.31    \nframe=  489 fps=1.8 q=29.6 size=    3840KiB time=00:00:04.05 bitrate=7751.4kbits/s speed=0.0148x elapsed=0:04:34.82    \nframe=  491 fps=1.8 q=29.6 size=    3840KiB time=00:00:04.07 bitrate=7719.7kbits/s speed=0.0148x elapsed=0:04:35.35    \nframe=  491 fps=1.8 q=29.6 size=    3840KiB time=00:00:04.07 bitrate=7719.7kbits/s speed=0.0148x elapsed=0:04:35.87    \nframe=  493 fps=1.8 q=28.5 size=    3840KiB time=00:00:04.09 bitrate=7688.2kbits/s speed=0.0148x elapsed=0:04:36.39    \nframe=  494 fps=1.8 q=29.7 size=    3840KiB time=00:00:04.10 bitrate=7672.6kbits/s speed=0.0148x elapsed=0:04:36.91    \nframe=  494 fps=1.8 q=29.7 size=    3840KiB time=00:00:04.10 bitrate=7672.6kbits/s speed=0.0148x elapsed=0:04:37.44    \nframe=  494 fps=1.8 q=29.7 size=    3840KiB time=00:00:04.10 bitrate=7672.6kbits/s speed=0.0148x elapsed=0:04:37.94    \nframe=  495 fps=1.8 q=29.5 size=    3840KiB time=00:00:04.10 bitrate=7657.0kbits/s speed=0.0148x elapsed=0:04:38.46    \nframe=  495 fps=1.8 q=29.5 size=    3840KiB time=00:00:04.10 bitrate=7657.0kbits/s speed=0.0147x elapsed=0:04:39.01    \nframe=  495 fps=1.8 q=29.5 size=    3840KiB time=00:00:04.10 bitrate=7657.0kbits/s speed=0.0147x elapsed=0:04:39.58    \nframe=  496 fps=1.8 q=29.2 size=    3840KiB time=00:00:04.11 bitrate=7641.5kbits/s speed=0.0147x elapsed=0:04:40.13    \nframe=  496 fps=1.8 q=29.2 size=    3840KiB time=00:00:04.11 bitrate=7641.5kbits/s speed=0.0147x elapsed=0:04:40.71    \nframe=  496 fps=1.8 q=29.2 size=    3840KiB time=00:00:04.11 bitrate=7641.5kbits/s speed=0.0146x elapsed=0:04:41.26    \nframe=  496 fps=1.8 q=29.2 size=    3840KiB time=00:00:04.11 bitrate=7641.5kbits/s speed=0.0146x elapsed=0:04:41.78    \nframe=  496 fps=1.8 q=29.2 size=    3840KiB time=00:00:04.11 bitrate=7641.5kbits/s speed=0.0146x elapsed=0:04:42.32    \nframe=  496 fps=1.8 q=29.2 size=    3840KiB time=00:00:04.11 bitrate=7641.5kbits/s speed=0.0146x elapsed=0:04:42.86    \nframe=  497 fps=1.8 q=19.9 size=    3840KiB time=00:00:04.12 bitrate=7626.1kbits/s speed=0.0146x elapsed=0:04:43.45    \nframe=  499 fps=1.8 q=29.7 size=    3840KiB time=00:00:04.14 bitrate=7595.4kbits/s speed=0.0146x elapsed=0:04:43.99    \nframe=  501 fps=1.8 q=29.8 size=    3840KiB time=00:00:04.15 bitrate=7565.0kbits/s speed=0.0146x elapsed=0:04:44.51    \nframe=  501 fps=1.8 q=29.8 size=    3840KiB time=00:00:04.15 bitrate=7565.0kbits/s speed=0.0146x elapsed=0:04:45.02    \nframe=  501 fps=1.8 q=29.8 size=    3840KiB time=00:00:04.15 bitrate=7565.0kbits/s speed=0.0146x elapsed=0:04:45.58    \nframe=  502 fps=1.8 q=21.6 size=    3840KiB time=00:00:04.16 bitrate=7549.8kbits/s speed=0.0146x elapsed=0:04:46.12    \nframe=  503 fps=1.8 q=28.7 size=    4096KiB time=00:00:04.17 bitrate=8037.1kbits/s speed=0.0146x elapsed=0:04:46.64    \nframe=  504 fps=1.8 q=29.8 size=    4096KiB time=00:00:04.18 bitrate=8021.1kbits/s speed=0.0146x elapsed=0:04:47.19    \nframe=  505 fps=1.8 q=29.6 size=    4096KiB time=00:00:04.19 bitrate=8005.1kbits/s speed=0.0146x elapsed=0:04:47.71    \nframe=  506 fps=1.8 q=29.8 size=    4096KiB time=00:00:04.20 bitrate=7989.2kbits/s speed=0.0146x elapsed=0:04:48.22    \nframe=  507 fps=1.8 q=21.7 size=    4096KiB time=00:00:04.20 bitrate=7973.4kbits/s speed=0.0146x elapsed=0:04:48.74    \nframe=  509 fps=1.8 q=29.8 size=    4096KiB time=00:00:04.22 bitrate=7942.0kbits/s speed=0.0146x elapsed=0:04:49.26    \nframe=  511 fps=1.8 q=29.8 size=    4096KiB time=00:00:04.24 bitrate=7910.8kbits/s speed=0.0146x elapsed=0:04:49.77    \nframe=  514 fps=1.8 q=29.8 size=    4096KiB time=00:00:04.26 bitrate=7864.4kbits/s speed=0.0147x elapsed=0:04:50.29    \nframe=  514 fps=1.8 q=29.8 size=    4096KiB time=00:00:04.26 bitrate=7864.4kbits/s speed=0.0147x elapsed=0:04:50.83    \nframe=  516 fps=1.8 q=29.7 size=    4096KiB time=00:00:04.28 bitrate=7833.8kbits/s speed=0.0147x elapsed=0:04:51.36    \nframe=  517 fps=1.8 q=21.7 size=    4096KiB time=00:00:04.29 bitrate=7818.6kbits/s speed=0.0147x elapsed=0:04:51.90    \nframe=  518 fps=1.8 q=28.9 size=    4096KiB time=00:00:04.30 bitrate=7803.4kbits/s speed=0.0147x elapsed=0:04:52.43    \nframe=  519 fps=1.8 q=29.8 size=    4096KiB time=00:00:04.30 bitrate=7788.3kbits/s speed=0.0147x elapsed=0:04:52.97    \nframe=  520 fps=1.8 q=29.8 size=    4096KiB time=00:00:04.31 bitrate=7773.3kbits/s speed=0.0147x elapsed=0:04:53.48    \nframe=  524 fps=1.8 q=29.9 size=    4096KiB time=00:00:04.35 bitrate=7713.7kbits/s speed=0.0148x elapsed=0:04:54.00    \nframe=  524 fps=1.8 q=29.9 size=    4096KiB time=00:00:04.35 bitrate=7713.7kbits/s speed=0.0148x elapsed=0:04:54.55    \nframe=  524 fps=1.8 q=29.9 size=    4096KiB time=00:00:04.35 bitrate=7713.7kbits/s speed=0.0147x elapsed=0:04:55.10    \nframe=  524 fps=1.8 q=29.9 size=    4096KiB time=00:00:04.35 bitrate=7713.7kbits/s speed=0.0147x elapsed=0:04:55.67    \nframe=  525 fps=1.8 q=29.9 size=    4096KiB time=00:00:04.35 bitrate=7713.7kbits/s speed=0.0147x elapsed=0:04:56.25    \nframe=  525 fps=1.8 q=29.9 size=    4096KiB time=00:00:04.35 bitrate=7699.0kbits/s speed=0.0147x elapsed=0:04:56.84    \nframe=  525 fps=1.8 q=29.9 size=    4096KiB time=00:00:04.35 bitrate=7699.0kbits/s speed=0.0147x elapsed=0:04:57.39    \nframe=  526 fps=1.8 q=29.9 size=    4096KiB time=00:00:04.36 bitrate=7684.3kbits/s speed=0.0147x elapsed=0:04:57.93    \nframe=  526 fps=1.8 q=29.9 size=    4096KiB time=00:00:04.36 bitrate=7684.3kbits/s speed=0.0146x elapsed=0:04:58.46    \nframe=  526 fps=1.8 q=29.9 size=    4096KiB time=00:00:04.36 bitrate=7684.3kbits/s speed=0.0146x elapsed=0:04:58.99    \nframe=  527 fps=1.8 q=21.7 size=    4096KiB time=00:00:04.37 bitrate=7669.7kbits/s speed=0.0146x elapsed=0:04:59.54    \nframe=  527 fps=1.8 q=21.7 size=    4096KiB time=00:00:04.37 bitrate=7669.7kbits/s speed=0.0146x elapsed=0:05:00.08    \nframe=  528 fps=1.8 q=28.7 size=    4096KiB time=00:00:04.38 bitrate=7655.1kbits/s speed=0.0146x elapsed=0:05:00.60    \nframe=  529 fps=1.8 q=29.8 size=    4096KiB time=00:00:04.39 bitrate=7640.6kbits/s speed=0.0146x elapsed=0:05:01.16    \nframe=  530 fps=1.8 q=29.9 size=    4096KiB time=00:00:04.40 bitrate=7626.1kbits/s speed=0.0146x elapsed=0:05:01.69    \nframe=  530 fps=1.8 q=29.9 size=    4096KiB time=00:00:04.40 bitrate=7626.1kbits/s speed=0.0146x elapsed=0:05:02.24    \nframe=  530 fps=1.8 q=29.9 size=    4096KiB time=00:00:04.40 bitrate=7626.1kbits/s speed=0.0145x elapsed=0:05:02.79    \nframe=  530 fps=1.7 q=29.9 size=    4096KiB time=00:00:04.40 bitrate=7626.1kbits/s speed=0.0145x elapsed=0:05:03.36    \nframe=  531 fps=1.7 q=29.8 size=    4096KiB time=00:00:04.40 bitrate=7611.7kbits/s speed=0.0145x elapsed=0:05:03.91    \nframe=  532 fps=1.7 q=21.8 size=    4096KiB time=00:00:04.41 bitrate=7597.3kbits/s speed=0.0145x elapsed=0:05:04.46    \nframe=  532 fps=1.7 q=21.8 size=    4096KiB time=00:00:04.41 bitrate=7597.3kbits/s speed=0.0145x elapsed=0:05:05.02    \nframe=  532 fps=1.7 q=21.8 size=    4096KiB time=00:00:04.41 bitrate=7597.3kbits/s speed=0.0145x elapsed=0:05:05.55    \nframe=  532 fps=1.7 q=21.8 size=    4096KiB time=00:00:04.41 bitrate=7597.3kbits/s speed=0.0144x elapsed=0:05:06.11    \nframe=  533 fps=1.7 q=28.7 size=    4096KiB time=00:00:04.42 bitrate=7583.0kbits/s speed=0.0144x elapsed=0:05:06.63    \nframe=  534 fps=1.7 q=29.9 size=    4096KiB time=00:00:04.43 bitrate=7568.7kbits/s speed=0.0144x elapsed=0:05:07.18    \nframe=  536 fps=1.7 q=29.8 size=    4096KiB time=00:00:04.45 bitrate=7540.4kbits/s speed=0.0145x elapsed=0:05:07.72    \nframe=  536 fps=1.7 q=29.8 size=    4096KiB time=00:00:04.45 bitrate=7540.4kbits/s speed=0.0144x elapsed=0:05:08.25    \nframe=  536 fps=1.7 q=29.8 size=    4096KiB time=00:00:04.45 bitrate=7540.4kbits/s speed=0.0144x elapsed=0:05:08.78    \nframe=  537 fps=1.7 q=21.8 size=    4096KiB time=00:00:04.45 bitrate=7526.3kbits/s speed=0.0144x elapsed=0:05:09.30    \nframe=  538 fps=1.7 q=28.7 size=    4352KiB time=00:00:04.46 bitrate=7981.8kbits/s speed=0.0144x elapsed=0:05:09.82    \nframe=  539 fps=1.7 q=29.8 size=    4352KiB time=00:00:04.47 bitrate=7966.9kbits/s speed=0.0144x elapsed=0:05:10.34    \nframe=  539 fps=1.7 q=29.8 size=    4352KiB time=00:00:04.47 bitrate=7966.9kbits/s speed=0.0144x elapsed=0:05:10.90    \nframe=  539 fps=1.7 q=29.8 size=    4352KiB time=00:00:04.47 bitrate=7966.9kbits/s speed=0.0144x elapsed=0:05:11.43    \nframe=  540 fps=1.7 q=29.8 size=    4352KiB time=00:00:04.47 bitrate=7966.9kbits/s speed=0.0143x elapsed=0:05:11.98    \nframe=  540 fps=1.7 q=29.8 size=    4352KiB time=00:00:04.48 bitrate=7952.1kbits/s speed=0.0143x elapsed=0:05:12.52    \nframe=  540 fps=1.7 q=29.8 size=    4352KiB time=00:00:04.48 bitrate=7952.1kbits/s speed=0.0143x elapsed=0:05:13.05    \nframe=  541 fps=1.7 q=29.8 size=    4352KiB time=00:00:04.49 bitrate=7937.4kbits/s speed=0.0143x elapsed=0:05:13.58    \nframe=  544 fps=1.7 q=29.9 size=    4352KiB time=00:00:04.51 bitrate=7893.4kbits/s speed=0.0144x elapsed=0:05:14.11    \nframe=  544 fps=1.7 q=29.9 size=    4352KiB time=00:00:04.51 bitrate=7893.4kbits/s speed=0.0144x elapsed=0:05:14.62    \nframe=  545 fps=1.7 q=29.9 size=    4352KiB time=00:00:04.52 bitrate=7878.9kbits/s speed=0.0144x elapsed=0:05:15.14    \nframe=  547 fps=1.7 q=21.8 size=    4352KiB time=00:00:04.54 bitrate=7850.0kbits/s speed=0.0144x elapsed=0:05:15.68    \nframe=  548 fps=1.7 q=28.8 size=    4352KiB time=00:00:04.55 bitrate=7835.6kbits/s speed=0.0144x elapsed=0:05:16.20    \nframe=  549 fps=1.7 q=29.9 size=    4352KiB time=00:00:04.55 bitrate=7821.3kbits/s speed=0.0144x elapsed=0:05:16.74    \nframe=  551 fps=1.7 q=29.9 size=    4352KiB time=00:00:04.57 bitrate=7792.8kbits/s speed=0.0144x elapsed=0:05:17.27    \nframe=  551 fps=1.7 q=29.9 size=    4352KiB time=00:00:04.57 bitrate=7792.8kbits/s speed=0.0144x elapsed=0:05:17.79    \nframe=  552 fps=1.7 q=21.8 size=    4352KiB time=00:00:04.58 bitrate=7778.6kbits/s speed=0.0144x elapsed=0:05:18.32    \nframe=  554 fps=1.7 q=29.9 size=    4352KiB time=00:00:04.60 bitrate=7750.4kbits/s speed=0.0144x elapsed=0:05:18.84    \nframe=  556 fps=1.7 q=29.8 size=    4352KiB time=00:00:04.61 bitrate=7722.4kbits/s speed=0.0145x elapsed=0:05:19.37    \nframe=  557 fps=1.7 q=21.7 size=    4352KiB time=00:00:04.62 bitrate=7708.5kbits/s speed=0.0145x elapsed=0:05:19.89    \nframe=  558 fps=1.7 q=28.8 size=    4352KiB time=00:00:04.63 bitrate=7694.7kbits/s speed=0.0145x elapsed=0:05:20.41    \nframe=  559 fps=1.7 q=29.9 size=    4352KiB time=00:00:04.64 bitrate=7680.8kbits/s speed=0.0145x elapsed=0:05:20.96    \nframe=  561 fps=1.7 q=29.9 size=    4352KiB time=00:00:04.65 bitrate=7653.4kbits/s speed=0.0145x elapsed=0:05:21.49    \nframe=  561 fps=1.7 q=29.9 size=    4352KiB time=00:00:04.65 bitrate=7653.4kbits/s speed=0.0145x elapsed=0:05:22.03    \nframe=  564 fps=1.7 q=30.0 size=    4352KiB time=00:00:04.68 bitrate=7612.5kbits/s speed=0.0145x elapsed=0:05:22.55    \nframe=  565 fps=1.7 q=29.9 size=    4352KiB time=00:00:04.69 bitrate=7599.0kbits/s speed=0.0145x elapsed=0:05:23.08    \nframe=  565 fps=1.7 q=29.9 size=    4352KiB time=00:00:04.69 bitrate=7599.0kbits/s speed=0.0145x elapsed=0:05:23.59    \nframe=  566 fps=1.7 q=30.0 size=    4352KiB time=00:00:04.70 bitrate=7585.5kbits/s speed=0.0145x elapsed=0:05:24.13    \nframe=  567 fps=1.7 q=21.7 size=    4352KiB time=00:00:04.70 bitrate=7572.1kbits/s speed=0.0145x elapsed=0:05:24.64    \nframe=  568 fps=1.7 q=28.9 size=    4352KiB time=00:00:04.71 bitrate=7558.7kbits/s speed=0.0145x elapsed=0:05:25.19    \nframe=  569 fps=1.7 q=29.9 size=    4352KiB time=00:00:04.72 bitrate=7545.4kbits/s speed=0.0145x elapsed=0:05:25.73    \nframe=  570 fps=1.7 q=29.9 size=    4352KiB time=00:00:04.73 bitrate=7532.1kbits/s speed=0.0145x elapsed=0:05:26.24    \nframe=  571 fps=1.7 q=29.9 size=    4352KiB time=00:00:04.74 bitrate=7518.9kbits/s speed=0.0145x elapsed=0:05:26.76    \nframe=  573 fps=1.8 q=28.8 size=    4608KiB time=00:00:04.75 bitrate=7933.3kbits/s speed=0.0145x elapsed=0:05:27.28    \nframe=  575 fps=1.8 q=29.9 size=    4608KiB time=00:00:04.77 bitrate=7905.6kbits/s speed=0.0146x elapsed=0:05:27.81    \nframe=  576 fps=1.8 q=29.9 size=    4608KiB time=00:00:04.78 bitrate=7891.8kbits/s speed=0.0146x elapsed=0:05:28.34    \nframe=  577 fps=1.8 q=21.7 size=    4608KiB time=00:00:04.79 bitrate=7878.1kbits/s speed=0.0146x elapsed=0:05:28.85    \nframe=  579 fps=1.8 q=29.9 size=    4608KiB time=00:00:04.80 bitrate=7864.4kbits/s speed=0.0146x elapsed=0:05:29.38    \nframe=  580 fps=1.8 q=29.9 size=    4608KiB time=00:00:04.81 bitrate=7837.2kbits/s speed=0.0146x elapsed=0:05:29.91    \nframe=  581 fps=1.8 q=21.9 size=    4608KiB time=00:00:04.82 bitrate=7823.6kbits/s speed=0.0146x elapsed=0:05:30.43    \nframe=  583 fps=1.8 q=29.9 size=    4608KiB time=00:00:04.84 bitrate=7796.7kbits/s speed=0.0146x elapsed=0:05:30.96    \nframe=  585 fps=1.8 q=29.9 size=    4608KiB time=00:00:04.85 bitrate=7770.0kbits/s speed=0.0147x elapsed=0:05:31.48    \nframe=  586 fps=1.8 q=22.3 size=    4608KiB time=00:00:04.86 bitrate=7756.7kbits/s speed=0.0147x elapsed=0:05:31.99    \nframe=  588 fps=1.8 q=29.8 size=    4608KiB time=00:00:04.88 bitrate=7730.2kbits/s speed=0.0147x elapsed=0:05:32.52    \nframe=  589 fps=1.8 q=29.9 size=    4608KiB time=00:00:04.89 bitrate=7717.0kbits/s speed=0.0147x elapsed=0:05:33.05    \nframe=  592 fps=1.8 q=25.6 size=    4608KiB time=00:00:04.91 bitrate=7677.8kbits/s speed=0.0147x elapsed=0:05:33.58    \nframe=  593 fps=1.8 q=28.7 size=    4608KiB time=00:00:04.92 bitrate=7664.8kbits/s speed=0.0147x elapsed=0:05:34.11    \nframe=  594 fps=1.8 q=24.8 size=    4608KiB time=00:00:04.93 bitrate=7651.8kbits/s speed=0.0147x elapsed=0:05:34.63    \nframe=  595 fps=1.8 q=24.3 size=    4608KiB time=00:00:04.94 bitrate=7638.9kbits/s speed=0.0147x elapsed=0:05:35.16    \nframe=  595 fps=1.8 q=24.3 size=    4608KiB time=00:00:04.94 bitrate=7638.9kbits/s speed=0.0147x elapsed=0:05:35.68    \nframe=  596 fps=1.8 q=23.6 size=    4608KiB time=00:00:04.95 bitrate=7626.1kbits/s speed=0.0147x elapsed=0:05:36.19    \nframe=  599 fps=1.8 q=23.7 size=    4608KiB time=00:00:04.97 bitrate=7587.8kbits/s speed=0.0148x elapsed=0:05:36.71    \n[mp4 @ 0000022a6a7c9b80] Starting second pass: moving the moov atom to the beginning of the file\n[out#0/mp4 @ 0000022a6a7c9a80] video:4808KiB audio:0KiB subtitle:0KiB other streams:0KiB global headers:2KiB muxing overhead: 0.209032%\nframe=  600 fps=1.8 q=25.7 Lsize=    4818KiB time=00:00:04.98 bitrate=7919.9kbits/s speed=0.0148x elapsed=0:05:36.74    \nx265 [info]: frame I:      3, Avg QP:24.30  kb/s: 125472.96\nx265 [info]: frame P:    118, Avg QP:22.01  kb/s: 34207.91\nx265 [info]: frame B:    479, Avg QP:28.77  kb/s: 649.22  \nx265 [info]: Weighted P-Frames: Y:0.0% UV:0.0%\n\nencoded 600 frames in 336.52s (1.78 fps), 7873.21 kb/s, Avg QP:27.42\n",
  "seconds": 336.94193744659424,
  "probe_out": {}
}